<svg xmlns="http://www.w3.org/2000/svg" width="25.901" height="20.359" viewBox="0 0 25.901 20.359"><defs><style>.a{fill:red;}.b{fill:none;stroke:red;stroke-linecap:round;}</style></defs><g transform="translate(4.72 0)"><g transform="translate(0 3.48) rotate(-90)"><path class="a" d="M.957.074,1,.124a.217.217,0,0,1-.021.3L.419.921A.217.217,0,0,1,.1.888L.043.808A.216.216,0,0,1,.081.51L.658.048A.217.217,0,0,1,.957.074Z"/><g transform="translate(0.636 0.87)"><path class="a" d="M1,.079l.126.182a.187.187,0,0,1-.041.253l-.656.507A.188.188,0,0,1,.161.981L.034.8A.187.187,0,0,1,.074.544L.733.039A.187.187,0,0,1,1,.079Z" transform="translate(0 0)"/></g><g transform="translate(1.211 1.782)"><path class="a" d="M1.027.086l.11.18a.181.181,0,0,1-.064.25l-.7.409A.182.182,0,0,1,.131.868L.031.717A.181.181,0,0,1,.085.463L.776.028A.181.181,0,0,1,1.027.086Z"/></g><g transform="translate(1.783 2.785)"><path class="a" d="M.21.9.025.541A.224.224,0,0,1,.138.231L.654.017A.224.224,0,0,1,.934.111c.067.116.137.232.2.341a.224.224,0,0,1-.1.316L.5,1A.224.224,0,0,1,.21.9Z"/></g><g transform="translate(2.427 3.985)"><path class="a" d="M.951.089A1.2,1.2,0,0,1,1.04.272.18.18,0,0,1,.926.51l-.633.2A.18.18,0,0,1,.079.615L.02.5a.18.18,0,0,1,.1-.251L.731.012A.181.181,0,0,1,.951.089Z"/></g></g><g transform="translate(11.535 3.449) rotate(-90)"><g transform="translate(2.296 0)"><path class="a" d="M1.13.617,1.1.677A.217.217,0,0,1,.821.792L.133.505a.217.217,0,0,1-.108-.3L.07.117a.216.216,0,0,1,.284-.1l.668.316A.217.217,0,0,1,1.13.617Z"/></g><g transform="translate(1.736 0.962)"><path class="a" d="M1.2.648q-.053.1-.108.194A.187.187,0,0,1,.848.916L.1.549A.188.188,0,0,1,.024.29L.13.1A.187.187,0,0,1,.377.02l.743.371A.187.187,0,0,1,1.2.648Z"/></g><g transform="translate(1.255 1.846)"><path class="a" d="M1.121.709,1.007.887A.181.181,0,0,1,.755.938L.081.49A.182.182,0,0,1,.025.246L.117.09A.181.181,0,0,1,.369.027l.694.431A.181.181,0,0,1,1.121.709Z"/></g><g transform="translate(0.591 2.717)"><path class="a" d="M.044.414.286.09A.224.224,0,0,1,.614.056l.419.37a.224.224,0,0,1,.038.292C1,.829.922.943.851,1.047a.224.224,0,0,1-.33.045L.079.718A.224.224,0,0,1,.044.414Z"/></g><g transform="translate(0 3.817)"><path class="a" d="M.893.73A1.207,1.207,0,0,1,.767.89.18.18,0,0,1,.5.892L.049.41A.18.18,0,0,1,.038.176l.079-.1A.18.18,0,0,1,.383.048L.866.5A.181.181,0,0,1,.893.73Z" transform="translate(0 0)"/></g></g><g transform="translate(0.21 20.312) rotate(-90)"><g transform="translate(2.428)"><path class="a" d="M.1.074.053.124a.217.217,0,0,0,.021.3l.56.493A.217.217,0,0,0,.95.888l.06-.08A.216.216,0,0,0,.971.51L.395.048A.217.217,0,0,0,.1.074Z"/></g><g transform="translate(1.686 0.87)"><path class="a" d="M.159.079.032.261A.187.187,0,0,0,.073.514l.656.507A.188.188,0,0,0,1,.98L1.124.8A.187.187,0,0,0,1.085.544L.425.039A.187.187,0,0,0,.159.079Z"/></g><g transform="translate(1.106 1.782)"><path class="a" d="M.135.086l-.11.18A.181.181,0,0,0,.09.516l.7.409A.182.182,0,0,0,1.032.868l.1-.151A.181.181,0,0,0,1.078.463L.386.028A.181.181,0,0,0,.135.086Z"/></g><g transform="translate(0.534 2.785)"><path class="a" d="M.953.9,1.138.541A.224.224,0,0,0,1.025.231L.508.017A.224.224,0,0,0,.229.111C.162.227.093.343.03.452a.224.224,0,0,0,.1.316L.663,1A.224.224,0,0,0,.953.9Z"/></g><g transform="translate(0 3.985)"><path class="a" d="M.1.089A1.2,1.2,0,0,0,.012.272.18.18,0,0,0,.126.51l.633.2A.18.18,0,0,0,.974.615C.993.575,1.012.538,1.032.5a.18.18,0,0,0-.1-.251L.321.012A.181.181,0,0,0,.1.089Z"/></g></g><g transform="translate(11.483 20.359) rotate(-90)"><g transform="translate(0 0)"><path class="a" d="M.017.617.043.677A.217.217,0,0,0,.326.792L1.014.505a.217.217,0,0,0,.108-.3L1.077.117a.216.216,0,0,0-.284-.1L.124.336A.217.217,0,0,0,.017.617Z"/></g><g transform="translate(0.482 0.962)"><path class="a" d="M.023.648q.053.1.108.193A.187.187,0,0,0,.377.916L1.121.549A.188.188,0,0,0,1.2.289L1.1.1A.187.187,0,0,0,.847.02L.1.391A.187.187,0,0,0,.023.648Z"/></g><g transform="translate(1.04 1.846)"><path class="a" d="M.028.709.142.887A.181.181,0,0,0,.395.938L1.068.49A.182.182,0,0,0,1.124.246L1.032.09A.181.181,0,0,0,.78.027L.086.458A.181.181,0,0,0,.028.709Z"/></g><g transform="translate(1.744 2.717)"><path class="a" d="M1.064.414.822.09A.224.224,0,0,0,.495.056L.076.426A.224.224,0,0,0,.038.718c.074.111.149.225.219.329a.224.224,0,0,0,.33.045L1.029.718A.224.224,0,0,0,1.064.414Z"/></g><g transform="translate(2.521 3.817)"><path class="a" d="M.03.73A1.2,1.2,0,0,0,.156.89a.18.18,0,0,0,.264,0L.874.41A.18.18,0,0,0,.885.176L.806.073A.18.18,0,0,0,.539.048L.057.5A.181.181,0,0,0,.03.73Z"/></g></g><line class="b" y1="10.889" x2="10.889" transform="translate(2.35 4.639)"/><line class="b" x1="10.889" y1="10.889" transform="translate(2.35 4.639)"/></g><g transform="matrix(0.799, -0.602, 0.602, 0.799, 20.283, 8.833)"><g transform="translate(2.296 0)"><path class="a" d="M1.13.617,1.1.677A.217.217,0,0,1,.821.792L.133.505a.217.217,0,0,1-.108-.3L.07.117a.216.216,0,0,1,.284-.1l.668.316A.217.217,0,0,1,1.13.617Z" transform="translate(0 0)"/></g><g transform="translate(1.736 0.962)"><path class="a" d="M1.2.648q-.053.1-.108.194A.187.187,0,0,1,.848.916L.1.549A.188.188,0,0,1,.024.29L.13.1A.187.187,0,0,1,.377.02l.743.371A.187.187,0,0,1,1.2.648Z" transform="translate(0 0)"/></g><g transform="translate(1.255 1.846)"><path class="a" d="M1.121.709,1.007.887A.181.181,0,0,1,.755.938L.081.49A.182.182,0,0,1,.025.246L.117.09A.181.181,0,0,1,.369.027l.694.431A.181.181,0,0,1,1.121.709Z" transform="translate(0 0)"/></g><g transform="translate(0.591 2.717)"><path class="a" d="M.044.414.286.09A.224.224,0,0,1,.614.056l.419.37a.224.224,0,0,1,.038.292C1,.829.922.943.851,1.047a.224.224,0,0,1-.33.045L.079.718A.224.224,0,0,1,.044.414Z" transform="translate(0 0)"/></g><g transform="translate(0 3.817)"><path class="a" d="M.893.73A1.207,1.207,0,0,1,.767.89.18.18,0,0,1,.5.892L.049.41A.18.18,0,0,1,.038.176l.079-.1A.18.18,0,0,1,.383.048L.866.5A.181.181,0,0,1,.893.73Z" transform="translate(0 0)"/></g></g><g transform="matrix(0.799, -0.602, 0.602, 0.799, 0, 9.936)"><g transform="translate(2.428 0)"><path class="a" d="M.1.074.053.124a.217.217,0,0,0,.021.3l.56.493A.217.217,0,0,0,.95.888l.06-.08A.216.216,0,0,0,.971.51L.395.048A.217.217,0,0,0,.1.074Z" transform="translate(0 0)"/></g><g transform="translate(1.686 0.87)"><path class="a" d="M.159.079.032.261A.187.187,0,0,0,.073.514l.656.507A.188.188,0,0,0,1,.98L1.124.8A.187.187,0,0,0,1.085.544L.425.039A.187.187,0,0,0,.159.079Z"/></g><g transform="translate(1.106 1.782)"><path class="a" d="M.135.086l-.11.18A.181.181,0,0,0,.09.516l.7.409A.182.182,0,0,0,1.032.868l.1-.151A.181.181,0,0,0,1.078.463L.386.028A.181.181,0,0,0,.135.086Z" transform="translate(0 0)"/></g><g transform="translate(0.534 2.785)"><path class="a" d="M.953.9,1.138.541A.224.224,0,0,0,1.025.231L.508.017A.224.224,0,0,0,.229.111C.162.227.093.343.03.452a.224.224,0,0,0,.1.316L.663,1A.224.224,0,0,0,.953.9Z" transform="translate(0 0)"/></g><g transform="translate(0 3.985)"><path class="a" d="M.1.089A1.2,1.2,0,0,0,.012.272.18.18,0,0,0,.126.51l.633.2A.18.18,0,0,0,.974.615C.993.575,1.012.538,1.032.5a.18.18,0,0,0-.1-.251L.321.012A.181.181,0,0,0,.1.089Z" transform="translate(0 0)"/></g></g></svg>