<?xml version="1.0" encoding="utf-8"?>
<!-- Generator: Adobe Illustrator 24.0.2, SVG Export Plug-In . SVG Version: 6.00 Build 0)  -->
<svg version="1.1" id="Capa_1" xmlns="http://www.w3.org/2000/svg" xmlns:xlink="http://www.w3.org/1999/xlink" x="0px" y="0px"
	 viewBox="0 0 152 49.3" style="enable-background:new 0 0 152 49.3;" xml:space="preserve">
<style type="text/css">
	.st0{enable-background:new    ;}
	.st1{fill:#FDFFFC;}
</style>
<g class="st0">
	<path class="st1" d="M66.4,19.5h2.1V32h-2.1V19.5z"/>
	<path class="st1" d="M70.5,19.5h8.7v1.7h-3.3V32h-2.1V21.2h-3.3V19.5z"/>
	<path class="st1" d="M83.3,19.5v10.9h4.2V32h-6.3V19.5H83.3z"/>
	<path class="st1" d="M95,32.1c-3.5,0-6.4-2.6-6.4-6.4c0-3.7,2.9-6.4,6.4-6.4c3.6,0,6.4,2.6,6.4,6.4C101.3,29.5,98.5,32.1,95,32.1z
		 M95,30.3c2.5,0,4.3-1.8,4.3-4.6c0-2.8-1.8-4.6-4.3-4.6c-2.5,0-4.3,1.8-4.3,4.6C90.7,28.5,92.5,30.3,95,30.3z"/>
	<path class="st1" d="M108.4,32h-5V19.5h4.8c2.6,0,4.1,1.5,4.1,3.2c0,1.5-0.9,2.4-2.1,2.9c1.3,0.2,2.4,1.6,2.4,3.1
		C112.5,30.5,110.9,32,108.4,32z M107.9,21.2h-2.5v3.6h2.5c1.3,0,2.1-0.6,2.1-1.8C110.1,21.8,109.3,21.2,107.9,21.2z M108.1,26.4
		h-2.7v3.9h2.8c1.4,0,2.2-0.7,2.2-1.9C110.4,27.2,109.5,26.4,108.1,26.4z"/>
	<path class="st1" d="M126.9,29.4h-5.2l-0.9,2.6h-2.1l4.5-12.5h2.4L130,32h-2.2L126.9,29.4z M124.3,22l-2.1,5.8h4.1L124.3,22z"/>
	<path class="st1" d="M136.2,26.9H134V32h-2.1V19.5h4.3c3,0,4.4,1.7,4.4,3.7C140.7,25,139.5,26.9,136.2,26.9z M136.2,25.2
		c1.6,0,2.3-0.8,2.3-2c0-1.3-0.7-2.1-2.3-2.1H134v4.1H136.2z"/>
	<path class="st1" d="M147,26.9h-2.3V32h-2.1V19.5h4.3c3,0,4.4,1.7,4.4,3.7C151.4,25,150.2,26.9,147,26.9z M147,25.2
		c1.6,0,2.3-0.8,2.3-2c0-1.3-0.7-2.1-2.3-2.1h-2.3v4.1H147z"/>
</g>
<g transform="translate(31.156 37.008)">
	<g transform="translate(28.31 18.849)">
		<path class="st1" d="M-47.4-32.1h5.4c0.1,0,0.2,0,0.3-0.1l7.6-3.9l2.4,4.2l-3,1.8c-0.3,0.2-0.4,0.5-0.2,0.8s0.5,0.4,0.8,0.2
			c0,0,0,0,0,0l3.5-2.1c0.3-0.2,0.4-0.5,0.2-0.8l-3-5.1c-0.2-0.3-0.5-0.4-0.8-0.2l-8,4.1H-43c1.2-4.7,5.9-7.5,10.6-6.4
			c3.4,0.8,5.9,3.6,6.5,7c0,0.3,0.3,0.5,0.6,0.5h3.3c0.3,0,0.6-0.3,0.6-0.6c0-0.3-0.3-0.6-0.6-0.6c0,0,0,0,0,0h-2.8
			c-1.2-5.3-6.4-8.7-11.8-7.6c-3.8,0.8-6.7,3.8-7.6,7.6h-3.2c-0.3,0-0.6,0.3-0.6,0.6C-48-32.3-47.7-32.1-47.4-32.1L-47.4-32.1z"/>
		<path class="st1" d="M-22.1-30.4h-5.4c-0.1,0-0.2,0-0.3,0.1l-7.6,3.9l-2.4-4.2l3-1.8c0.3-0.2,0.4-0.5,0.2-0.8
			c-0.2-0.3-0.5-0.4-0.8-0.2c0,0,0,0,0,0l-3.5,2.1c-0.3,0.2-0.4,0.5-0.2,0.8l3,5.1c0.2,0.3,0.5,0.4,0.8,0.2l8-4.1h1.4
			c-1,4.7-5.7,7.7-10.4,6.6c-3.5-0.8-6.1-3.6-6.7-7.1c0-0.3-0.3-0.5-0.6-0.5h-3.7c-0.3,0-0.6,0.3-0.6,0.6c0,0.3,0.3,0.6,0.6,0.6h3.2
			c1.2,5.3,6.4,8.7,11.8,7.6c3.9-0.8,6.8-3.9,7.6-7.8h2.7c0.3,0,0.6-0.3,0.6-0.6C-21.5-30.1-21.8-30.4-22.1-30.4
			C-22.1-30.4-22.1-30.4-22.1-30.4L-22.1-30.4z"/>
	</g>
	<g transform="translate(31.052 8.84)">
		<path class="st1" d="M-43.8-37.6l-2.4,1.1c-0.3,0.1-0.6,0-0.7-0.3l-1.1-2.3c-0.1-0.3,0-0.6,0.3-0.7l2.4-1.2c0.3-0.1,0.6,0,0.7,0.2
			c0,0,0,0,0,0l1.1,2.4C-43.4-38-43.6-37.7-43.8-37.6C-43.8-37.6-43.8-37.6-43.8-37.6z"/>
	</g>
	<g transform="translate(33.028 13.818)">
		<path class="st1" d="M-44.6-39.5l-2.4,1.1c-0.2,0.1-0.5,0-0.6-0.2l-0.3-0.6c-0.1-0.2-0.1-0.5,0.2-0.7c0,0,0,0,0.1,0l2.6-1
			c0.3-0.1,0.5,0,0.7,0.3c0,0,0,0,0,0l0.2,0.5C-44.2-39.9-44.3-39.6-44.6-39.5z"/>
	</g>
	<g transform="translate(33.872 16.43)">
		<path class="st1" d="M-44.6-39.5l-2.4,1.1c-0.2,0.1-0.5,0-0.6-0.2l-0.3-0.6c-0.1-0.2-0.1-0.5,0.2-0.7c0,0,0,0,0.1,0l2.6-1
			c0.3-0.1,0.5,0,0.7,0.3c0,0,0,0,0,0l0.2,0.5C-44.2-39.9-44.3-39.6-44.6-39.5z"/>
	</g>
	<g transform="translate(30.699 43.624)">
		<path class="st1" d="M-45.9-40.9l2.3,1.2c0.2,0.1,0.3,0.4,0.2,0.7l-1.2,2.3c-0.1,0.3-0.5,0.4-0.7,0.3l-2.3-1.2
			c-0.3-0.1-0.4-0.4-0.3-0.7c0,0,0,0,0,0l1.3-2.3C-46.5-41-46.2-41.1-45.9-40.9C-45.9-40.9-45.9-40.9-45.9-40.9z"/>
	</g>
	<g transform="translate(33.347 40.787)">
		<path class="st1" d="M-47-40.9l2.3,1.3c0.2,0.1,0.3,0.4,0.2,0.6l-0.2,0.6c-0.1,0.3-0.4,0.4-0.7,0.3c0,0,0,0-0.1,0l-2.4-1.4
			c-0.2-0.1-0.3-0.4-0.2-0.7c0,0,0,0,0,0l0.3-0.5C-47.5-41-47.2-41.1-47-40.9z"/>
	</g>
	<g transform="translate(34.902 38.525)">
		<path class="st1" d="M-47-40.9l2.3,1.3c0.2,0.1,0.3,0.4,0.2,0.6l-0.2,0.6c-0.1,0.3-0.4,0.4-0.7,0.3c0,0,0,0-0.1,0l-2.4-1.4
			c-0.2-0.1-0.3-0.4-0.2-0.7c0,0,0,0,0,0l0.3-0.5C-47.5-41-47.2-41.1-47-40.9z"/>
	</g>
	<g transform="translate(47.567 44.036)">
		<path class="st1" d="M-47.7-40l2.4-1c0.3-0.1,0.6,0,0.7,0.3l1,2.3c0.1,0.3,0,0.6-0.3,0.7l-2.4,1c-0.3,0.1-0.6,0-0.7-0.2
			c0,0,0,0,0,0l-0.9-2.5C-48.1-39.6-48-39.9-47.7-40C-47.7-40-47.7-40-47.7-40z"/>
	</g>
	<g transform="translate(46.464 40.951)">
		<path class="st1" d="M-47.7-40l2.5-1c0.2-0.1,0.5,0,0.6,0.2l0.3,0.6c0.1,0.2,0,0.5-0.2,0.7c0,0,0,0-0.1,0l-2.6,0.9
			c-0.3,0.1-0.5,0-0.6-0.3c0,0,0,0,0,0l-0.2-0.5C-48.1-39.6-47.9-39.9-47.7-40z"/>
	</g>
	<g transform="translate(45.742 38.303)">
		<path class="st1" d="M-47.7-40l2.5-1c0.2-0.1,0.5,0,0.6,0.2l0.3,0.6c0.1,0.2,0,0.5-0.2,0.7c0,0,0,0-0.1,0l-2.6,0.9
			c-0.3,0.1-0.5,0-0.6-0.3c0,0,0,0,0,0l-0.2-0.5C-48.1-39.6-47.9-39.9-47.7-40z"/>
	</g>
	<g transform="translate(48.013 9.085)">
		<path class="st1" d="M-45.3-36.6l-2.4-1c-0.3-0.1-0.4-0.4-0.3-0.7l1-2.3c0.1-0.3,0.4-0.4,0.7-0.3l2.4,1c0.3,0.1,0.4,0.4,0.3,0.7
			c0,0,0,0,0,0l-1.1,2.4C-44.7-36.6-45-36.5-45.3-36.6C-45.3-36.6-45.3-36.6-45.3-36.6z"/>
	</g>
	<g transform="translate(46.56 13.779)">
		<path class="st1" d="M-45.3-38.3l-2.4-1.1c-0.2-0.1-0.4-0.4-0.3-0.6l0.2-0.6c0.1-0.3,0.4-0.4,0.6-0.3c0,0,0,0,0.1,0l2.5,1.2
			c0.2,0.1,0.4,0.4,0.2,0.7c0,0,0,0,0,0l-0.3,0.5C-44.8-38.3-45-38.2-45.3-38.3z"/>
	</g>
	<g transform="translate(45.174 16.148)">
		<path class="st1" d="M-45.3-38.3l-2.4-1.1c-0.2-0.1-0.4-0.4-0.3-0.6l0.2-0.6c0.1-0.3,0.4-0.4,0.6-0.3c0,0,0,0,0.1,0l2.5,1.2
			c0.2,0.1,0.4,0.4,0.2,0.7c0,0,0,0,0,0l-0.3,0.5C-44.8-38.3-45-38.2-45.3-38.3z"/>
	</g>
	<g transform="translate(58.515 26.788)">
		<path class="st1" d="M-48-37.9l0-2.6c0-0.3,0.2-0.5,0.5-0.5l2.5,0c0.3,0,0.5,0.2,0.6,0.5l0,2.6c0,0.3-0.2,0.5-0.5,0.5c0,0,0,0,0,0
			l-2.7-0.1C-47.8-37.4-48-37.6-48-37.9C-48-37.9-48-37.9-48-37.9z"/>
	</g>
	<g transform="translate(55.759 26.77)">
		<path class="st1" d="M-48-37.8l0.1-2.6c0-0.3,0.2-0.5,0.5-0.5l0.7-0.1c0.3,0,0.5,0.2,0.5,0.5c0,0,0,0,0,0.1l-0.2,2.8
			c0,0.3-0.3,0.5-0.5,0.5c0,0,0,0,0,0l-0.6-0.1C-47.8-37.3-48-37.6-48-37.8z"/>
	</g>
	<g transform="translate(20.701 26.788)">
		<path class="st1" d="M-44.3-40.4l0,2.6c0,0.3-0.2,0.5-0.5,0.5l-2.5,0c-0.3,0-0.5-0.2-0.6-0.5l0-2.6c0-0.3,0.2-0.5,0.5-0.5
			c0,0,0,0,0,0l2.7,0.1C-44.5-40.9-44.3-40.7-44.3-40.4C-44.3-40.4-44.3-40.4-44.3-40.4z"/>
	</g>
	<g transform="translate(25.439 26.77)">
		<path class="st1" d="M-46.3-40.4l-0.1,2.6c0,0.3-0.2,0.5-0.5,0.5l-0.7,0.1c-0.3,0-0.5-0.2-0.5-0.5c0,0,0,0,0-0.1l0.2-2.8
			c0-0.3,0.3-0.5,0.5-0.5c0,0,0,0,0,0l0.6,0.1C-46.5-40.9-46.3-40.7-46.3-40.4z"/>
	</g>
	<g transform="translate(58.515 12.51)">
		<path class="st1" d="M-46.3-40.9L-46.3-40.9c0.2,0.2,0.2,0.5,0,0.6l-1,0.9c-0.2,0.1-0.4,0.1-0.5,0c0,0,0,0,0,0l-0.1-0.1
			c-0.1-0.2-0.1-0.4,0.1-0.5l1-0.8C-46.7-41-46.5-41-46.3-40.9z"/>
		<g transform="translate(1.098 1.503)">
			<path class="st1" d="M-46.3-40.9c0.1,0.1,0.1,0.2,0.2,0.3c0.1,0.1,0.1,0.3-0.1,0.4l-1.1,0.9c-0.1,0.1-0.3,0.1-0.5-0.1
				c0,0,0,0,0,0l-0.2-0.3c-0.1-0.1-0.1-0.3,0.1-0.4l1.1-0.9C-46.6-41-46.4-41-46.3-40.9C-46.3-40.9-46.3-40.9-46.3-40.9z"/>
		</g>
		<g transform="translate(2.093 3.081)">
			<path class="st1" d="M-46.2-40.8c0.1,0.1,0.1,0.2,0.2,0.3c0.1,0.1,0,0.3-0.1,0.4c0,0,0,0,0,0l-1.2,0.7c-0.1,0.1-0.3,0-0.4-0.1
				l-0.2-0.3c-0.1-0.1-0.1-0.3,0.1-0.4c0,0,0,0,0,0l1.2-0.8C-46.5-41-46.3-41-46.2-40.8C-46.2-40.9-46.2-40.9-46.2-40.8z"/>
		</g>
		<g transform="translate(3.082 4.813)">
			<path class="st1" d="M-47.6-39.4l-0.3-0.6c-0.1-0.2,0-0.4,0.2-0.5c0,0,0,0,0,0l0.9-0.4c0.2-0.1,0.4,0,0.5,0.2
				c0.1,0.2,0.2,0.4,0.3,0.6c0.1,0.2,0,0.4-0.1,0.5c0,0,0,0,0,0l-0.9,0.4C-47.3-39.2-47.5-39.3-47.6-39.4z"/>
		</g>
		<g transform="translate(4.195 6.888)">
			<path class="st1" d="M-46.4-40.8c0.1,0.1,0.1,0.2,0.2,0.3c0.1,0.2,0,0.3-0.2,0.4c0,0,0,0,0,0l-1.1,0.3c-0.1,0-0.3,0-0.4-0.2
				c0-0.1-0.1-0.1-0.1-0.2c-0.1-0.2,0-0.3,0.1-0.4c0,0,0,0,0,0l1.1-0.4C-46.6-41-46.4-41-46.4-40.8z"/>
		</g>
	</g>
	<g transform="translate(58.567 36.546)">
		<g transform="translate(3.969)">
			<path class="st1" d="M-46-39.9l0,0.1c-0.1,0.2-0.3,0.3-0.5,0.2l-1.2-0.5c-0.2-0.1-0.3-0.3-0.2-0.5c0,0,0,0,0,0l0.1-0.2
				c0.1-0.2,0.3-0.3,0.5-0.2l1.2,0.5C-46-40.3-46-40.1-46-39.9z"/>
		</g>
		<g transform="translate(3.001 1.662)">
			<path class="st1" d="M-45.9-39.9c-0.1,0.1-0.1,0.2-0.2,0.3c-0.1,0.1-0.3,0.2-0.4,0.1l-1.3-0.6c-0.2-0.1-0.2-0.3-0.1-0.4
				c0,0,0,0,0,0l0.2-0.3c0.1-0.2,0.3-0.2,0.4-0.1l1.3,0.6C-45.9-40.2-45.8-40-45.9-39.9C-45.9-39.9-45.9-39.9-45.9-39.9z"/>
		</g>
		<g transform="translate(2.169 3.191)">
			<path class="st1" d="M-46.1-39.8c-0.1,0.1-0.1,0.2-0.2,0.3c-0.1,0.1-0.3,0.2-0.4,0.1c0,0,0,0,0,0l-1.2-0.8
				c-0.1-0.1-0.2-0.3-0.1-0.4l0.2-0.3c0.1-0.1,0.3-0.2,0.4-0.1c0,0,0,0,0,0l1.2,0.7C-46-40.1-46-39.9-46.1-39.8
				C-46.1-39.8-46.1-39.8-46.1-39.8z"/>
		</g>
		<g transform="translate(1.022 4.696)">
			<path class="st1" d="M-47.9-40.3l0.4-0.6c0.1-0.2,0.4-0.2,0.5-0.1c0,0,0,0,0,0l0.7,0.6c0.1,0.1,0.2,0.3,0.1,0.5
				c-0.1,0.2-0.3,0.4-0.4,0.6c-0.1,0.2-0.4,0.2-0.5,0.1c0,0,0,0,0,0l-0.8-0.6C-48-39.9-48-40.1-47.9-40.3z"/>
		</g>
		<g transform="translate(0 6.597)">
			<path class="st1" d="M-46.5-39.7c-0.1,0.1-0.1,0.2-0.2,0.3c-0.1,0.1-0.3,0.1-0.4,0c0,0,0,0,0,0l-0.8-0.8c-0.1-0.1-0.1-0.3,0-0.4
				c0-0.1,0.1-0.1,0.1-0.2c0.1-0.1,0.3-0.2,0.4-0.1c0,0,0,0,0,0l0.8,0.8C-46.4-40-46.4-39.9-46.5-39.7z"/>
		</g>
	</g>
	<g transform="translate(18.889 12.873)">
		<g transform="translate(4.196)">
			<path class="st1" d="M-47.8-40.9L-47.8-40.9c-0.2,0.2-0.2,0.5,0,0.6l1,0.9c0.2,0.1,0.4,0.1,0.5,0c0,0,0,0,0,0l0.1-0.1
				c0.1-0.2,0.1-0.4-0.1-0.5l-1-0.8C-47.5-41-47.7-41-47.8-40.9z"/>
		</g>
		<g transform="translate(2.914 1.503)">
			<path class="st1" d="M-47.7-40.9c-0.1,0.1-0.1,0.2-0.2,0.3c-0.1,0.1-0.1,0.3,0.1,0.4l1.1,0.9c0.1,0.1,0.3,0.1,0.5-0.1
				c0,0,0,0,0,0l0.2-0.3c0.1-0.1,0.1-0.3-0.1-0.4l-1.1-0.9C-47.4-41-47.6-41-47.7-40.9C-47.7-40.9-47.7-40.9-47.7-40.9z"/>
		</g>
		<g transform="translate(1.911 3.081)">
			<path class="st1" d="M-47.8-40.8c-0.1,0.1-0.1,0.2-0.2,0.3c-0.1,0.1,0,0.3,0.1,0.4c0,0,0,0,0,0l1.2,0.7c0.1,0.1,0.3,0,0.4-0.1
				l0.2-0.3c0.1-0.1,0.1-0.3-0.1-0.4c0,0,0,0,0,0l-1.2-0.8C-47.5-41-47.7-41-47.8-40.8z"/>
		</g>
		<g transform="translate(0.923 4.813)">
			<path class="st1" d="M-46.4-39.4l0.3-0.6c0.1-0.2,0-0.4-0.2-0.5c0,0,0,0,0,0l-0.9-0.4c-0.2-0.1-0.4,0-0.5,0.2
				c-0.1,0.2-0.2,0.4-0.3,0.6c-0.1,0.2,0,0.4,0.1,0.5c0,0,0,0,0,0l0.9,0.4C-46.7-39.2-46.4-39.3-46.4-39.4z"/>
		</g>
		<g transform="translate(0 6.888)">
			<path class="st1" d="M-47.8-40.8c-0.1,0.1-0.1,0.2-0.2,0.3c-0.1,0.2,0,0.3,0.2,0.4c0,0,0,0,0,0l1.1,0.3c0.1,0,0.3,0,0.4-0.2
				c0-0.1,0.1-0.1,0.1-0.2c0.1-0.2,0-0.3-0.1-0.4c0,0,0,0,0,0l-1.1-0.4C-47.6-41-47.8-41-47.8-40.8z"/>
		</g>
	</g>
	<g transform="translate(18.807 36.456)">
		<path class="st1" d="M-48-39.9l0,0.1c0.1,0.2,0.3,0.3,0.5,0.2l1.2-0.5c0.2-0.1,0.3-0.3,0.2-0.5c0,0,0,0,0,0l-0.1-0.2
			c-0.1-0.2-0.3-0.3-0.5-0.2l-1.2,0.5C-48-40.3-48.1-40.1-48-39.9z"/>
		<g transform="translate(0.834 1.662)">
			<path class="st1" d="M-48-39.9c0.1,0.1,0.1,0.2,0.2,0.3c0.1,0.1,0.3,0.2,0.4,0.1l1.3-0.6c0.2-0.1,0.2-0.3,0.1-0.4c0,0,0,0,0,0
				l-0.2-0.3c-0.1-0.2-0.3-0.2-0.4-0.1l-1.3,0.6C-48-40.2-48-40.1-48-39.9C-48-39.9-48-39.9-48-39.9z"/>
		</g>
		<g transform="translate(1.797 3.191)">
			<path class="st1" d="M-48-39.8l0.2,0.3c0.1,0.1,0.3,0.2,0.4,0.1c0,0,0,0,0,0l1.2-0.8c0.1-0.1,0.2-0.3,0.1-0.4l-0.2-0.3
				c-0.1-0.1-0.3-0.2-0.4-0.1c0,0,0,0,0,0l-1.2,0.7C-48-40.1-48-39.9-48-39.8C-48-39.8-48-39.8-48-39.8z"/>
		</g>
		<g transform="translate(3.014 4.696)">
			<path class="st1" d="M-46.2-40.3l-0.4-0.6c-0.1-0.2-0.4-0.2-0.5-0.1c0,0,0,0,0,0l-0.7,0.6c-0.1,0.1-0.2,0.3-0.1,0.5
				c0.1,0.2,0.3,0.4,0.4,0.6c0.1,0.2,0.4,0.2,0.5,0.1c0,0,0,0,0,0l0.8-0.6C-46.1-39.9-46-40.1-46.2-40.3z"/>
		</g>
		<g transform="translate(4.357 6.597)">
			<path class="st1" d="M-47.9-39.7c0.1,0.1,0.1,0.2,0.2,0.3c0.1,0.1,0.3,0.1,0.4,0c0,0,0,0,0,0l0.8-0.8c0.1-0.1,0.1-0.3,0-0.4
				c0-0.1-0.1-0.1-0.1-0.2c-0.1-0.1-0.3-0.2-0.4-0.1c0,0,0,0,0,0l-0.8,0.8C-48-40-48-39.9-47.9-39.7z"/>
		</g>
	</g>
	<g transform="translate(16.844 3.992)">
		<g transform="translate(25.505 25.153)">
			<path class="st1" d="M-24-40.4c-0.3,1.6-0.6,3.1-1,4.6c-0.1,0.7-0.7,1.3-1.5,1.2c-0.1,0-0.3,0-0.4-0.1c-1.5-0.4-3.1-0.8-4.6-1.1
				c-1.1-0.3-2.3-0.3-3.4-0.1c-2.5,0.8-3.3,2.9-1.8,5.1c1.2,1.8,2.7,3.5,4,5.3c0.9,1.2,0.9,2.1-0.4,3c-3.3,2.4-7,4.3-11,5.5
				c-1.5,0.4-2.5,0-2.7-1.5c-0.5-3.5-1-7-1.3-10.5c0.1-0.5,0.5-1,1-1.2c0.5,0,1.4,0.5,1.4,0.9c0.3,1.9,0.4,3.9,0.6,5.8
				c0.2,2.5,0.9,3.2,3.3,2.6c1.7-0.4,3.3-1.1,4.7-2.1c1.4-0.9,1.4-1.6,0.3-3c-1-1.3-2-2.5-2.9-3.8c-2.7-4,1.3-8.9,5-8.7
				c1.7,0.1,3.5,0.2,5.2,0.4c1.4,0.1,2.2-0.3,2.4-1.8c0.2-1.7,1.4-1.3,2.6-1.2C-24.1-40.9-23.9-40.6-24-40.4z"/>
		</g>
		<g transform="translate(0 0.007)">
			<path class="st1" d="M-47.4-17c-0.4,0-0.6-0.4-0.6-0.7c0,0,0,0,0-0.1c0.3-1.4,0.5-2.6,0.7-3.8c0.1-1,1-1.7,2-1.6
				c0.1,0,0.2,0,0.3,0.1c1.7,0.3,3.4,0.8,5.1,1.2c1.2,0.5,2.6,0.3,3.6-0.5c1.8-1.6,2.1-3,0.7-5c-1.1-1.5-2.3-2.8-3.5-4.3
				c-1.4-1.8-1.4-2.7,0.5-4.1c3.3-2.4,7.1-4.1,11-5.1c1-0.3,1.8,0.1,2,1c0.6,3.7,1.2,7.4,1.6,11.1c0,0.3-0.7,0.8-1.3,1.1
				c-0.2,0.1-0.5,0-0.7-0.1c-0.3-0.2-0.5-0.6-0.6-0.9c-0.2-1.8-0.3-3.7-0.4-5.5c-0.2-2.9-1-3.6-3.9-2.9c-1.6,0.5-3.1,1.3-4.5,2.2
				c-0.7,0.4-1,1.3-0.6,2.1c0.1,0.2,0.2,0.3,0.3,0.4c0.8,1,1.6,2,2.4,3c1.7,2.1,2.2,4.3,0.9,6.7c-1.2,2.2-3.7,3.4-6.1,3.1
				c-1.3-0.1-2.6-0.3-3.9-0.4c-1.5-0.1-2.5,0.3-2.7,1.9C-45.4-16.7-46.3-16.9-47.4-17z"/>
		</g>
		<g transform="translate(0.251 25.184)">
			<path class="st1" d="M-48-40.3c-0.1-0.3,0.1-0.5,0.4-0.6c0,0,0,0,0,0c1.3-0.2,2.2-0.2,2.4,1.4c0.1,1.3,1.1,1.8,2.4,1.6
				c1.5-0.2,2.9-0.3,4.4-0.4c2.5-0.3,4.9,1.1,5.9,3.4c1.2,2.3,0.6,4.4-0.9,6.3c-0.7,1-1.5,1.9-2.3,2.8c-0.7,0.6-0.8,1.7-0.2,2.5
				c0.1,0.1,0.2,0.2,0.3,0.3c1.7,1.7,4.2,2.6,6.7,2.3c0.7-0.2,1.2-0.8,1.4-1.5c0.4-1.7,0.5-3.5,0.8-5.3c0.1-0.7,0.2-1.3,0.5-2
				c0.3-0.4,0.8-0.6,1.3-0.6c0.4,0.1,0.7,0.5,0.8,0.9c-0.5,3.7-1,7.5-1.7,11.2c-0.4,0.7-1.2,1-2,1c-4.3-1.1-8.3-3.1-11.8-5.9
				c-0.7-0.5-0.9-1.6-0.4-2.3c0.1-0.1,0.1-0.2,0.2-0.2c1.3-1.6,2.6-3.2,3.8-4.8c0.9-1.2,1.8-2.4,0.7-4c-1-1.6-2.9-2.3-4.7-1.8
				c-1.7,0.4-3.4,0.9-5.1,1.3c-0.9,0.3-1.9-0.1-2.2-1c0-0.1-0.1-0.2-0.1-0.4C-47.5-37.4-47.7-38.8-48-40.3z"/>
		</g>
		<g transform="translate(25.384)">
			<path class="st1" d="M-46.5-39.3c0-1,0.9-1.8,1.8-1.7c0.2,0,0.5,0.1,0.7,0.2c3.9,1.1,7.6,2.8,11,5.2c1.7,1.2,1.8,1.9,0.6,3.6
				c-1,1.4-2.2,2.6-3.2,3.9c-1,1.3-2.1,2.7-1,4.4c1.1,1.9,2.7,2.4,5.1,1.8c1.4-0.4,2.9-0.8,4.3-1c1.8-0.3,2.5,0.3,3,2
				c0.2,0.9,0.3,1.8,0.4,2.7c0.1,0.8,0.1,1.5-1,1.5c-0.9,0-1.5-0.1-1.6-1.2c-0.2-1.7-0.8-2.1-2.6-2c-1.6,0.1-3.2,0.4-4.7,0.4
				c-2.9,0-5-1.4-5.8-4.2c-0.3-1.1-0.3-2.3,0.1-3.4c0.9-1.7,2-3.3,3.3-4.8c0.7-0.7,0.8-1.8,0.1-2.5c-0.1-0.1-0.2-0.2-0.4-0.3
				c-1.5-1.4-3.4-2.2-5.4-2.4c-1.8-0.1-2.6,0.5-2.9,2.2c-0.3,1.5-0.4,3-0.5,4.6c0,0.4-0.1,0.7-0.2,1.1c-0.3,0.8-0.3,2-1.5,1.8
				c-1.3-0.1-0.9-1.2-1-2C-48-30-47-36.6-46.5-39.3z"/>
		</g>
	</g>
</g>
</svg>
