<svg xmlns="http://www.w3.org/2000/svg" width="152" height="49.314" viewBox="0 0 152 49.314"><defs><style>.a,.b{fill:#fdfffc;}.a{font-size:18px;font-family:Poppins-Medium, Poppins;font-weight:500;}</style></defs><g transform="translate(-48 -41)"><text class="a" transform="translate(113 73)"><tspan x="0" y="0">ITLOB APP</tspan></text><g transform="translate(31.156 37.008)"><g transform="translate(28.31 18.849)"><path class="b" d="M96.366,115.205h5.44a.569.569,0,0,0,.261-.063l7.612-3.911,2.4,4.176-2.994,1.8a.57.57,0,1,0,.587.977l3.474-2.084a.57.57,0,0,0,.2-.773l-2.951-5.132a.57.57,0,0,0-.755-.223l-7.973,4.1h-.913a8.741,8.741,0,0,1,17.1.641.57.57,0,0,0,.566.5h3.252a.57.57,0,1,0,0-1.14H118.9a9.882,9.882,0,0,0-19.313,0H96.366a.57.57,0,0,0,0,1.14Z" transform="translate(-95.796 -106.284)"/><path class="b" d="M121.676,161.483h-5.44a.569.569,0,0,0-.261.063l-7.612,3.911-2.4-4.176,2.994-1.8a.57.57,0,1,0-.587-.977l-3.474,2.084a.57.57,0,0,0-.2.773l2.951,5.132a.57.57,0,0,0,.755.223l7.973-4.1h1.4a8.741,8.741,0,0,1-17.155-.454.57.57,0,0,0-.562-.477H96.366a.57.57,0,0,0,0,1.14h3.217a9.882,9.882,0,0,0,19.355-.208h2.738a.57.57,0,1,0,0-1.14Z" transform="translate(-95.796 -150.853)"/></g><g transform="translate(31.052 8.84)"><path class="b" d="M118.828,40.813l-2.352,1.07a.522.522,0,0,1-.68-.264l-1.075-2.3a.571.571,0,0,1,.25-.74l2.353-1.15a.522.522,0,0,1,.712.223l1.053,2.443A.522.522,0,0,1,118.828,40.813Z" transform="translate(-114.669 -37.367)"/></g><g transform="translate(33.028 13.818)"><path class="b" d="M131.728,73.132l-2.413,1.083a.5.5,0,0,1-.64-.206l-.328-.567a.5.5,0,0,1,.245-.716l2.557-1.041a.5.5,0,0,1,.663.3l.184.525A.5.5,0,0,1,131.728,73.132Z" transform="translate(-128.28 -71.647)"/></g><g transform="translate(33.872 16.43)"><path class="b" d="M137.537,91.114,135.124,92.2a.5.5,0,0,1-.64-.206l-.328-.567a.5.5,0,0,1,.245-.716l2.557-1.041a.5.5,0,0,1,.663.3l.184.525A.5.5,0,0,1,137.537,91.114Z" transform="translate(-134.089 -89.63)"/></g><g transform="translate(30.699 43.624)"><path class="b" d="M114.314,276.93l2.283,1.211a.522.522,0,0,1,.206.7l-1.167,2.255a.571.571,0,0,1-.739.253l-2.347-1.163a.522.522,0,0,1-.257-.7l1.293-2.324A.523.523,0,0,1,114.314,276.93Z" transform="translate(-112.242 -276.863)"/></g><g transform="translate(33.347 40.787)"><path class="b" d="M131.513,257.389l2.33,1.252a.5.5,0,0,1,.227.633l-.249.606a.5.5,0,0,1-.717.243l-2.385-1.391a.5.5,0,0,1-.168-.707l.3-.466A.5.5,0,0,1,131.513,257.389Z" transform="translate(-130.47 -257.33)"/></g><g transform="translate(34.902 38.525)"><path class="b" d="M142.219,241.817l2.33,1.252a.5.5,0,0,1,.227.633l-.249.606a.5.5,0,0,1-.717.243l-2.385-1.391a.5.5,0,0,1-.168-.707l.3-.466A.5.5,0,0,1,142.219,241.817Z" transform="translate(-141.177 -241.758)"/></g><g transform="translate(47.567 44.036)"><path class="b" d="M228.724,280.695l2.4-.96a.523.523,0,0,1,.667.295l.968,2.348a.571.571,0,0,1-.284.728l-2.4,1.04a.522.522,0,0,1-.7-.256l-.939-2.489A.523.523,0,0,1,228.724,280.695Z" transform="translate(-228.383 -279.701)"/></g><g transform="translate(46.464 40.951)"><path class="b" d="M221.1,259.469l2.461-.97a.5.5,0,0,1,.63.236l.3.581a.5.5,0,0,1-.278.7l-2.6.922a.5.5,0,0,1-.648-.329l-.16-.533A.5.5,0,0,1,221.1,259.469Z" transform="translate(-220.785 -258.463)"/></g><g transform="translate(45.742 38.303)"><path class="b" d="M216.131,241.237l2.461-.97a.5.5,0,0,1,.629.236l.3.581a.5.5,0,0,1-.278.7l-2.6.922a.5.5,0,0,1-.648-.329l-.16-.533A.5.5,0,0,1,216.131,241.237Z" transform="translate(-215.814 -240.232)"/></g><g transform="translate(48.013 9.085)"><path class="b" d="M234.118,43.455l-2.365-1.041a.522.522,0,0,1-.256-.683l1-2.334a.571.571,0,0,1,.719-.307l2.426.988a.522.522,0,0,1,.308.679l-1.12,2.413A.522.522,0,0,1,234.118,43.455Z" transform="translate(-231.452 -39.055)"/></g><g transform="translate(46.56 13.779)"><path class="b" d="M224.158,74.034l-2.415-1.078a.5.5,0,0,1-.272-.615l.2-.622a.5.5,0,0,1,.7-.295l2.48,1.213a.5.5,0,0,1,.219.693l-.269.487A.5.5,0,0,1,224.158,74.034Z" transform="translate(-221.445 -71.374)"/></g><g transform="translate(45.174 16.148)"><path class="b" d="M214.618,90.346,212.2,89.268a.5.5,0,0,1-.272-.615l.2-.622a.5.5,0,0,1,.7-.294l2.48,1.213a.5.5,0,0,1,.219.693l-.269.487A.5.5,0,0,1,214.618,90.346Z" transform="translate(-211.905 -87.686)"/></g><g transform="translate(58.515 26.788)"><path class="b" d="M303.757,164.034l.04-2.584a.522.522,0,0,1,.529-.5l2.539.013a.571.571,0,0,1,.562.543l.032,2.619a.522.522,0,0,1-.506.548l-2.659-.095A.522.522,0,0,1,303.757,164.034Z" transform="translate(-303.757 -160.949)"/></g><g transform="translate(55.759 26.77)"><path class="b" d="M284.784,164l.065-2.644a.5.5,0,0,1,.462-.488l.653-.051a.5.5,0,0,1,.54.53l-.165,2.756a.5.5,0,0,1-.556.469l-.553-.061A.5.5,0,0,1,284.784,164Z" transform="translate(-284.784 -160.819)"/></g><g transform="translate(20.701 26.788)"><path class="b" d="M47.107,161.582l-.04,2.584a.522.522,0,0,1-.53.5L44,164.654a.571.571,0,0,1-.562-.543l-.032-2.619a.522.522,0,0,1,.507-.548l2.658.095A.522.522,0,0,1,47.107,161.582Z" transform="translate(-43.404 -160.944)"/></g><g transform="translate(25.439 26.77)"><path class="b" d="M77.744,161.394l-.065,2.644a.5.5,0,0,1-.462.488l-.653.051a.5.5,0,0,1-.54-.53l.165-2.756a.5.5,0,0,1,.556-.469l.553.061A.5.5,0,0,1,77.744,161.394Z" transform="translate(-76.023 -160.819)"/></g><g transform="translate(58.515 12.51)"><path class="b" d="M305.411,62.766l.074.086a.376.376,0,0,1-.036.526l-.967.852a.375.375,0,0,1-.548-.059l-.1-.138a.373.373,0,0,1,.066-.514l1-.8A.374.374,0,0,1,305.411,62.766Z" transform="translate(-303.757 -62.638)"/><g transform="translate(1.098 1.503)"><path class="b" d="M313.048,73.125q.11.156.218.315a.324.324,0,0,1-.071.438l-1.134.877a.324.324,0,0,1-.464-.071l-.219-.311a.323.323,0,0,1,.068-.444l1.14-.873A.323.323,0,0,1,313.048,73.125Z" transform="translate(-311.32 -72.989)"/></g><g transform="translate(2.093 3.081)"><path class="b" d="M319.947,84q.1.156.189.311a.313.313,0,0,1-.111.432l-1.207.707a.314.314,0,0,1-.421-.1l-.174-.26a.314.314,0,0,1,.094-.44l1.195-.752A.314.314,0,0,1,319.947,84Z" transform="translate(-318.171 -83.849)"/></g><g transform="translate(3.082 4.813)"><path class="b" d="M325.337,97.333l-.319-.62a.387.387,0,0,1,.2-.535l.892-.37a.387.387,0,0,1,.482.162c.116.2.236.4.345.59a.386.386,0,0,1-.18.546l-.915.4A.387.387,0,0,1,325.337,97.333Z" transform="translate(-324.974 -95.778)"/></g><g transform="translate(4.195 6.888)"><path class="b" d="M334.286,110.218a2.069,2.069,0,0,1,.154.317.311.311,0,0,1-.2.411l-1.094.34a.31.31,0,0,1-.371-.159c-.034-.068-.066-.132-.1-.2a.311.311,0,0,1,.164-.434l1.065-.408A.313.313,0,0,1,334.286,110.218Z" transform="translate(-332.642 -110.065)"/></g></g><g transform="translate(58.567 36.546)"><g transform="translate(3.969)"><path class="b" d="M333.4,229.2l-.045.1a.375.375,0,0,1-.488.2l-1.19-.5a.374.374,0,0,1-.188-.518l.079-.153a.373.373,0,0,1,.491-.166l1.155.545A.374.374,0,0,1,333.4,229.2Z" transform="translate(-331.446 -228.13)"/></g><g transform="translate(3.001 1.662)"><path class="b" d="M326.856,240.7q-.092.168-.187.335a.324.324,0,0,1-.425.129l-1.285-.635a.324.324,0,0,1-.14-.448l.183-.333a.323.323,0,0,1,.428-.133l1.285.642A.323.323,0,0,1,326.856,240.7Z" transform="translate(-324.779 -239.575)"/></g><g transform="translate(2.169 3.191)"><path class="b" d="M320.987,251.327q-.1.155-.2.307a.313.313,0,0,1-.437.089l-1.164-.775a.314.314,0,0,1-.1-.421l.158-.27a.313.313,0,0,1,.436-.108l1.2.745A.314.314,0,0,1,320.987,251.327Z" transform="translate(-319.05 -250.101)"/></g><g transform="translate(1.022 4.696)"><path class="b" d="M311.231,261.179l.417-.559a.387.387,0,0,1,.567-.059l.724.639a.387.387,0,0,1,.066.5c-.129.192-.257.388-.379.568a.386.386,0,0,1-.57.078l-.764-.646A.387.387,0,0,1,311.231,261.179Z" transform="translate(-311.155 -260.464)"/></g><g transform="translate(0 6.597)"><path class="b" d="M305.662,274.815a2.085,2.085,0,0,1-.218.277.311.311,0,0,1-.456,0l-.785-.834a.311.311,0,0,1-.02-.4c.047-.06.09-.117.136-.179a.311.311,0,0,1,.462-.042l.833.778A.313.313,0,0,1,305.662,274.815Z" transform="translate(-304.119 -273.554)"/></g></g><g transform="translate(18.889 12.873)"><g transform="translate(4.196)"><path class="b" d="M59.981,65.265l-.074.086a.376.376,0,0,0,.036.526l.967.852a.375.375,0,0,0,.548-.059l.1-.138a.373.373,0,0,0-.066-.514l-1-.8A.375.375,0,0,0,59.981,65.265Z" transform="translate(-59.816 -65.137)"/></g><g transform="translate(2.914 1.503)"><path class="b" d="M51.263,75.624q-.11.156-.218.315a.324.324,0,0,0,.07.438l1.134.877a.325.325,0,0,0,.464-.071l.219-.311a.323.323,0,0,0-.068-.443l-1.14-.873A.323.323,0,0,0,51.263,75.624Z" transform="translate(-50.989 -75.488)"/></g><g transform="translate(1.911 3.081)"><path class="b" d="M44.321,86.5q-.1.156-.189.311a.313.313,0,0,0,.111.432l1.207.707a.314.314,0,0,0,.421-.1l.174-.26a.313.313,0,0,0-.094-.44l-1.2-.752A.314.314,0,0,0,44.321,86.5Z" transform="translate(-44.087 -86.348)"/></g><g transform="translate(0.923 4.813)"><path class="b" d="M38.931,99.831l.32-.62a.386.386,0,0,0-.2-.535l-.892-.37a.387.387,0,0,0-.482.162c-.116.2-.236.4-.345.59a.386.386,0,0,0,.18.546l.915.4A.387.387,0,0,0,38.931,99.831Z" transform="translate(-37.284 -98.276)"/></g><g transform="translate(0 6.888)"><path class="b" d="M31.1,112.717a2.078,2.078,0,0,0-.154.317.311.311,0,0,0,.2.411l1.094.34a.311.311,0,0,0,.371-.159c.034-.069.066-.133.1-.2a.311.311,0,0,0-.164-.434l-1.065-.408A.313.313,0,0,0,31.1,112.717Z" transform="translate(-30.928 -112.564)"/></g></g><g transform="translate(18.807 36.456)"><path class="b" d="M30.395,228.577l.045.1a.376.376,0,0,0,.488.2l1.19-.5a.375.375,0,0,0,.188-.518l-.079-.153a.373.373,0,0,0-.491-.166l-1.155.545A.375.375,0,0,0,30.395,228.577Z" transform="translate(-30.365 -227.511)"/><g transform="translate(0.834 1.662)"><path class="b" d="M36.144,240.076q.092.168.187.334a.324.324,0,0,0,.425.129l1.285-.635a.325.325,0,0,0,.14-.448L38,239.123a.323.323,0,0,0-.428-.133l-1.285.642A.323.323,0,0,0,36.144,240.076Z" transform="translate(-36.104 -238.956)"/></g><g transform="translate(1.797 3.191)"><path class="b" d="M42.785,250.708l.2.307a.314.314,0,0,0,.437.089l1.164-.775a.314.314,0,0,0,.1-.421l-.158-.27a.313.313,0,0,0-.436-.108l-1.2.744A.314.314,0,0,0,42.785,250.708Z" transform="translate(-42.736 -249.482)"/></g><g transform="translate(3.014 4.696)"><path class="b" d="M52.957,260.56,52.54,260a.387.387,0,0,0-.567-.059l-.724.64a.387.387,0,0,0-.066.5c.129.192.257.388.379.568a.386.386,0,0,0,.57.078l.764-.646A.387.387,0,0,0,52.957,260.56Z" transform="translate(-51.118 -259.845)"/></g><g transform="translate(4.357 6.597)"><path class="b" d="M60.415,274.2a2.075,2.075,0,0,0,.218.277.311.311,0,0,0,.456,0l.785-.834a.31.31,0,0,0,.02-.4c-.047-.06-.09-.117-.136-.179a.311.311,0,0,0-.462-.043l-.833.778A.313.313,0,0,0,60.415,274.2Z" transform="translate(-60.363 -272.934)"/></g></g><g transform="translate(16.844 3.992)"><g transform="translate(25.505 25.153)"><path class="b" d="M216.466,177.774c-.334,1.61-.626,3.1-.973,4.584a1.351,1.351,0,0,1-1.866,1.136c-1.525-.4-3.05-.826-4.6-1.08a7.9,7.9,0,0,0-3.377-.075c-2.546.76-3.279,2.885-1.8,5.089,1.23,1.835,2.661,3.538,4.046,5.264.95,1.185.878,2.091-.407,3.014a36.635,36.635,0,0,1-10.993,5.469c-1.457.433-2.467.028-2.7-1.488q-.791-5.219-1.345-10.47a1.58,1.58,0,0,1,1.044-1.161c.508.013,1.37.526,1.439.934.324,1.916.442,3.868.607,5.809.213,2.5.887,3.2,3.315,2.646a15.3,15.3,0,0,0,4.69-2.094c1.442-.924,1.391-1.647.339-3.011-.964-1.251-1.982-2.465-2.876-3.764-2.719-3.952,1.3-8.892,4.984-8.734,1.737.075,3.472.247,5.2.411,1.366.129,2.224-.288,2.417-1.791.218-1.7,1.355-1.261,2.591-1.156C216.322,177.317,216.5,177.626,216.466,177.774Z" transform="translate(-192.449 -177.179)"/></g><g transform="translate(0 0.007)"><path class="b" d="M17.433,28.021a.652.652,0,0,1-.578-.768c.256-1.388.465-2.617.744-3.83a1.825,1.825,0,0,1,2.364-1.512c1.7.348,3.392.758,5.081,1.17a3.686,3.686,0,0,0,3.583-.547c1.812-1.553,2.117-3.018.731-4.976-1.063-1.5-2.346-2.846-3.495-4.29-1.418-1.782-1.359-2.749.5-4.092A32.673,32.673,0,0,1,37.378,4.124c.99-.258,1.808.083,1.97,1.049.619,3.676,1.171,7.365,1.583,11.068.035.318-.718.813-1.333,1.1a.9.9,0,0,1-.718-.13,1.988,1.988,0,0,1-.6-.92c-.239-1.826-.3-3.676-.429-5.516C37.633,7.849,36.854,7.143,34,7.916a18.672,18.672,0,0,0-4.466,2.242,1.519,1.519,0,0,0-.329,2.457c.762,1.01,1.558,1.995,2.36,2.974,1.694,2.069,2.246,4.312.871,6.735A6.026,6.026,0,0,1,26.3,25.39c-1.315-.095-2.621-.3-3.934-.436-1.451-.146-2.486.292-2.708,1.925C19.452,28.369,18.533,28.123,17.433,28.021Z" transform="translate(-16.844 -4.041)"/></g><g transform="translate(0.251 25.184)"><path class="b" d="M18.581,178.079a.513.513,0,0,1,.43-.6c1.327-.2,2.188-.206,2.373,1.4.145,1.26,1.068,1.821,2.437,1.612,1.459-.224,2.938-.335,4.412-.438a5.79,5.79,0,0,1,5.944,3.374c1.178,2.29.621,4.408-.893,6.344-.747.956-1.527,1.888-2.323,2.8a1.749,1.749,0,0,0,.136,2.759,8.092,8.092,0,0,0,6.652,2.322,2.244,2.244,0,0,0,1.434-1.468c.4-1.742.517-3.546.785-5.32a5.7,5.7,0,0,1,.518-1.968,1.681,1.681,0,0,1,1.284-.625,1.2,1.2,0,0,1,.769.9c-.5,3.748-1.02,7.5-1.729,11.21a2.275,2.275,0,0,1-1.953,1.026,29.8,29.8,0,0,1-11.789-5.9,1.64,1.64,0,0,1-.16-2.524c1.259-1.627,2.575-3.21,3.827-4.843.915-1.193,1.788-2.392.652-3.983a4.166,4.166,0,0,0-4.678-1.792c-1.688.421-3.364.892-5.056,1.3a1.7,1.7,0,0,1-2.285-1.352C19.056,180.961,18.844,179.577,18.581,178.079Z" transform="translate(-18.573 -177.393)"/></g><g transform="translate(25.384)"><path class="b" d="M193.089,5.679a1.783,1.783,0,0,1,2.533-1.565A34.21,34.21,0,0,1,206.586,9.3c1.672,1.195,1.776,1.854.573,3.558-.969,1.373-2.188,2.567-3.225,3.9-1.014,1.3-2.069,2.662-.991,4.432,1.127,1.851,2.719,2.384,5.078,1.789,1.431-.361,2.853-.8,4.306-1.027,1.791-.281,2.538.253,3,2.017a19.755,19.755,0,0,1,.388,2.654c.1.792.088,1.472-1.048,1.473-.9,0-1.485-.084-1.62-1.192-.208-1.7-.8-2.088-2.573-1.952-1.577.121-3.153.394-4.728.386-2.885-.014-5.024-1.358-5.848-4.179a5.171,5.171,0,0,1,.138-3.429,28.642,28.642,0,0,1,3.3-4.793,1.792,1.792,0,0,0-.229-2.852,8.806,8.806,0,0,0-5.393-2.392c-1.777-.1-2.554.482-2.873,2.238-.273,1.5-.37,3.035-.547,4.554a6.106,6.106,0,0,1-.153,1.1c-.254.822-.284,1.991-1.525,1.849-1.257-.144-.941-1.2-1-1.976C191.583,14.98,192.571,8.421,193.089,5.679Z" transform="translate(-191.619 -3.992)"/></g></g></g></g></svg>