<?xml version="1.0" encoding="utf-8"?>
<!-- Generator: Adobe Illustrator 24.0.2, SVG Export Plug-In . SVG Version: 6.00 Build 0)  -->
<svg version="1.1" id="Capa_1" xmlns="http://www.w3.org/2000/svg" xmlns:xlink="http://www.w3.org/1999/xlink" x="0px" y="0px"
	 viewBox="0 0 148 50.5" style="enable-background:new 0 0 148 50.5;" xml:space="preserve">
<style type="text/css">
	.st0{enable-background:new    ;}
	.st1{fill:#001F3F;}
</style>
<g transform="translate(-69 -15)">
	<g class="st0">
		<path class="st1" d="M131.4,34.5h2.1V47h-2.1V34.5z"/>
		<path class="st1" d="M135.5,34.5h8.7v1.7h-3.3V47h-2.1V36.2h-3.3V34.5z"/>
		<path class="st1" d="M148.3,34.5v10.9h4.2V47h-6.3V34.5H148.3z"/>
		<path class="st1" d="M160,47.1c-3.5,0-6.4-2.6-6.4-6.4c0-3.7,2.9-6.4,6.4-6.4c3.6,0,6.4,2.6,6.4,6.4
			C166.3,44.5,163.5,47.1,160,47.1z M160,45.3c2.5,0,4.3-1.8,4.3-4.6c0-2.8-1.8-4.6-4.3-4.6c-2.5,0-4.3,1.8-4.3,4.6
			C155.7,43.5,157.5,45.3,160,45.3z"/>
		<path class="st1" d="M173.4,47h-5V34.5h4.8c2.6,0,4.1,1.5,4.1,3.2c0,1.5-0.9,2.4-2.1,2.9c1.3,0.2,2.4,1.6,2.4,3.1
			C177.5,45.5,175.9,47,173.4,47z M172.9,36.2h-2.5v3.6h2.5c1.3,0,2.1-0.6,2.1-1.8C175.1,36.8,174.3,36.2,172.9,36.2z M173.1,41.4
			h-2.7v3.9h2.8c1.4,0,2.2-0.7,2.2-1.9C175.4,42.2,174.5,41.4,173.1,41.4z"/>
		<path class="st1" d="M191.9,44.4h-5.2l-0.9,2.6h-2.1l4.5-12.5h2.4L195,47h-2.2L191.9,44.4z M189.3,37l-2.1,5.8h4.1L189.3,37z"/>
		<path class="st1" d="M201.2,41.9H199V47h-2.1V34.5h4.3c3,0,4.4,1.7,4.4,3.7C205.7,40,204.5,41.9,201.2,41.9z M201.2,40.2
			c1.6,0,2.3-0.8,2.3-2c0-1.3-0.7-2.1-2.3-2.1H199v4.1H201.2z"/>
		<path class="st1" d="M212,41.9h-2.3V47h-2.1V34.5h4.3c3,0,4.4,1.7,4.4,3.7C216.4,40,215.2,41.9,212,41.9z M212,40.2
			c1.6,0,2.3-0.8,2.3-2c0-1.3-0.7-2.1-2.3-2.1h-2.3v4.1H212z"/>
	</g>
	<g transform="translate(52.156 11.008)">
		<g transform="translate(28.594 19.217)">
			<path class="st1" d="M0.6,9.1h5.6c0.1,0,0.2,0,0.3-0.1l7.8-4l2.5,4.3l-3.1,1.8c-0.3,0.2-0.4,0.5-0.2,0.8c0.2,0.3,0.5,0.4,0.8,0.2
				c0,0,0,0,0.1,0l3.6-2.1c0.3-0.2,0.4-0.5,0.2-0.8L15,4c-0.2-0.3-0.5-0.4-0.8-0.2L6,8H5.1c1.2-4.8,6-7.7,10.8-6.5
				c3.5,0.9,6.1,3.7,6.7,7.2c0,0.3,0.3,0.5,0.6,0.5h3.3c0.3,0,0.6-0.3,0.6-0.6c0-0.3-0.3-0.6-0.6-0.6c0,0,0,0,0,0h-2.8
				c-1.2-5.5-6.6-8.9-12-7.7C7.7,1.1,4.7,4.1,3.9,8H0.6C0.3,8,0,8.2,0,8.6C0,8.9,0.3,9.1,0.6,9.1L0.6,9.1z"/>
			<path class="st1" d="M26.5,10.9h-5.6c-0.1,0-0.2,0-0.3,0.1l-7.8,4l-2.5-4.3l3.1-1.8c0.3-0.2,0.4-0.5,0.2-0.8
				c-0.2-0.3-0.5-0.4-0.8-0.2c0,0,0,0-0.1,0L9.3,10c-0.3,0.2-0.4,0.5-0.2,0.8l3,5.3c0.2,0.3,0.5,0.4,0.8,0.2l8.2-4.2h1.4
				c-1.1,4.8-5.9,7.9-10.7,6.8c-3.6-0.8-6.3-3.7-6.9-7.3c0-0.3-0.3-0.5-0.6-0.5H0.6c-0.3,0-0.6,0.3-0.6,0.6c0,0.3,0.3,0.6,0.6,0.6
				h3.3c1.2,5.5,6.6,8.9,12,7.7c4-0.9,7-4,7.8-8h2.8c0.3,0,0.6-0.3,0.6-0.6C27.1,11.2,26.8,10.9,26.5,10.9
				C26.5,10.9,26.5,10.9,26.5,10.9L26.5,10.9z"/>
		</g>
		<g transform="translate(31.403 8.959)">
			<path class="st1" d="M4.3,3.5L1.9,4.6c-0.3,0.1-0.6,0-0.7-0.3L0.1,2c-0.1-0.3,0-0.6,0.3-0.8l2.4-1.2C3-0.1,3.3,0,3.4,0.3
				c0,0,0,0,0,0l1.1,2.5C4.7,3.1,4.6,3.4,4.3,3.5C4.3,3.5,4.3,3.5,4.3,3.5z"/>
		</g>
		<g transform="translate(33.429 14.061)">
			<path class="st1" d="M3.5,1.5L1.1,2.6c-0.2,0.1-0.5,0-0.7-0.2L0.1,1.8C-0.1,1.6,0,1.3,0.3,1.1c0,0,0,0,0.1,0L2.9,0
				c0.3-0.1,0.6,0,0.7,0.3c0,0,0,0,0,0l0.2,0.5C3.9,1.1,3.8,1.4,3.5,1.5z"/>
		</g>
		<g transform="translate(34.293 16.738)">
			<path class="st1" d="M3.5,1.5L1.1,2.6c-0.2,0.1-0.5,0-0.7-0.2L0.1,1.8C-0.1,1.6,0,1.3,0.3,1.1c0,0,0,0,0.1,0L2.9,0
				c0.3-0.1,0.6,0,0.7,0.3c0,0,0,0,0,0l0.2,0.5C3.9,1.1,3.8,1.4,3.5,1.5z"/>
		</g>
		<g transform="translate(31.042 44.604)">
			<path class="st1" d="M2.1,0.1l2.3,1.2C4.7,1.5,4.8,1.8,4.7,2L3.5,4.3C3.3,4.6,3,4.7,2.7,4.6L0.3,3.4C0,3.3-0.1,3,0,2.7
				c0,0,0,0,0,0l1.3-2.4C1.5,0,1.8-0.1,2.1,0.1C2.1,0.1,2.1,0.1,2.1,0.1z"/>
		</g>
		<g transform="translate(33.755 41.697)">
			<path class="st1" d="M1.1,0.1l2.4,1.3C3.7,1.5,3.8,1.7,3.7,2L3.4,2.6C3.3,2.9,3,3,2.8,2.9c0,0,0,0-0.1,0L0.3,1.4
				C0,1.3-0.1,1,0.1,0.7c0,0,0,0,0,0l0.3-0.5C0.5,0,0.8-0.1,1.1,0.1z"/>
		</g>
		<g transform="translate(35.348 39.379)">
			<path class="st1" d="M1.1,0.1l2.4,1.3C3.7,1.5,3.8,1.7,3.7,2L3.4,2.6C3.3,2.9,3,3,2.8,2.9c0,0,0,0-0.1,0L0.3,1.4
				C0,1.3-0.1,1,0.1,0.7c0,0,0,0,0,0l0.3-0.5C0.5,0,0.8-0.1,1.1,0.1z"/>
		</g>
		<g transform="translate(48.327 45.027)">
			<path class="st1" d="M0.3,1l2.5-1c0.3-0.1,0.6,0,0.7,0.3l1,2.4c0.1,0.3,0,0.6-0.3,0.7L1.7,4.6C1.5,4.7,1.1,4.6,1,4.3c0,0,0,0,0,0
				L0,1.7C-0.1,1.5,0,1.2,0.3,1C0.3,1,0.3,1,0.3,1z"/>
		</g>
		<g transform="translate(47.197 41.866)">
			<path class="st1" d="M0.3,1l2.5-1c0.2-0.1,0.5,0,0.6,0.2l0.3,0.6c0.1,0.3,0,0.6-0.2,0.7c0,0,0,0-0.1,0L0.8,2.5
				c-0.3,0.1-0.6,0-0.7-0.3c0,0,0,0,0,0L0,1.7C-0.1,1.4,0.1,1.1,0.3,1z"/>
		</g>
		<g transform="translate(46.457 39.152)">
			<path class="st1" d="M0.3,1l2.5-1c0.2-0.1,0.5,0,0.6,0.2l0.3,0.6c0.1,0.3,0,0.6-0.2,0.7c0,0,0,0-0.1,0L0.8,2.5
				c-0.3,0.1-0.6,0-0.7-0.3c0,0,0,0,0,0L0,1.7C-0.1,1.4,0.1,1.1,0.3,1z"/>
		</g>
		<g transform="translate(48.784 9.211)">
			<path class="st1" d="M2.7,4.5L0.3,3.4C0,3.3-0.1,3,0,2.7l1-2.4C1.2,0.1,1.5-0.1,1.8,0l2.5,1c0.3,0.1,0.4,0.4,0.3,0.7c0,0,0,0,0,0
				L3.5,4.2C3.3,4.5,3,4.6,2.7,4.5C2.8,4.5,2.7,4.5,2.7,4.5z"/>
		</g>
		<g transform="translate(47.295 14.021)">
			<path class="st1" d="M2.8,2.7L0.3,1.6C0.1,1.5-0.1,1.2,0,1l0.2-0.6C0.3,0.1,0.6-0.1,0.9,0c0,0,0,0,0.1,0l2.5,1.2
				C3.7,1.4,3.9,1.7,3.7,2c0,0,0,0,0,0L3.4,2.5C3.3,2.7,3,2.8,2.8,2.7z"/>
		</g>
		<g transform="translate(45.875 16.449)">
			<path class="st1" d="M2.8,2.7L0.3,1.6C0.1,1.5-0.1,1.2,0,1l0.2-0.6C0.3,0.1,0.6-0.1,0.9,0c0,0,0,0,0.1,0l2.5,1.2
				C3.7,1.4,3.9,1.7,3.7,2c0,0,0,0,0,0L3.4,2.5C3.3,2.7,3,2.8,2.8,2.7z"/>
		</g>
		<g transform="translate(59.546 27.352)">
			<path class="st1" d="M0,3.2l0-2.6C0.1,0.2,0.3,0,0.6,0l2.6,0c0.3,0,0.6,0.2,0.6,0.6l0,2.7c0,0.3-0.2,0.5-0.5,0.6c0,0,0,0,0,0
				L0.5,3.7C0.3,3.7,0,3.5,0,3.2C0,3.2,0,3.2,0,3.2z"/>
		</g>
		<g transform="translate(56.722 27.333)">
			<path class="st1" d="M0,3.3l0.1-2.7c0-0.3,0.2-0.5,0.5-0.5L1.2,0c0.3,0,0.5,0.2,0.6,0.5c0,0,0,0,0,0.1L1.6,3.4
				c0,0.3-0.3,0.5-0.5,0.5c0,0,0,0,0,0L0.5,3.8C0.2,3.8,0,3.5,0,3.3z"/>
		</g>
		<g transform="translate(20.797 27.352)">
			<path class="st1" d="M3.8,0.7l0,2.6c0,0.3-0.3,0.5-0.5,0.5l-2.6,0C0.3,3.8,0.1,3.6,0,3.2l0-2.7C0,0.3,0.2,0,0.5,0c0,0,0,0,0,0
				l2.7,0.1C3.5,0.1,3.8,0.3,3.8,0.7C3.8,0.6,3.8,0.6,3.8,0.7z"/>
		</g>
		<g transform="translate(25.651 27.333)">
			<path class="st1" d="M1.8,0.6L1.7,3.3c0,0.3-0.2,0.5-0.5,0.5L0.6,3.9C0.3,3.9,0,3.7,0,3.4c0,0,0,0,0-0.1l0.2-2.8
				C0.2,0.2,0.4,0,0.7,0c0,0,0,0,0,0l0.6,0.1C1.6,0.1,1.8,0.3,1.8,0.6z"/>
		</g>
		<g transform="translate(59.546 12.721)">
			<path class="st1" d="M1.7,0.1L1.7,0.1c0.2,0.2,0.2,0.5,0,0.6l-1,0.9c-0.2,0.1-0.4,0.1-0.5,0c0,0,0,0,0,0L0.1,1.4
				C0,1.3,0,1,0.1,0.9l1-0.8C1.3,0,1.6,0,1.7,0.1z"/>
			<g transform="translate(1.126 1.541)">
				<path class="st1" d="M1.8,0.1C1.8,0.2,1.9,0.4,2,0.5c0.1,0.1,0.1,0.3-0.1,0.4L0.8,1.8C0.6,1.9,0.4,1.9,0.3,1.8c0,0,0,0,0,0
					L0.1,1.4C0,1.3,0,1.1,0.1,1l1.2-0.9C1.4,0,1.7,0,1.8,0.1C1.8,0.1,1.8,0.1,1.8,0.1z"/>
			</g>
			<g transform="translate(2.145 3.157)">
				<path class="st1" d="M1.8,0.2C1.9,0.3,2,0.4,2,0.5c0.1,0.2,0,0.3-0.1,0.4c0,0,0,0,0,0L0.7,1.6c-0.1,0.1-0.3,0-0.4-0.1L0.1,1.3
					C0,1.1,0,0.9,0.1,0.8c0,0,0,0,0,0L1.4,0C1.5,0,1.7,0,1.8,0.2z"/>
			</g>
			<g transform="translate(3.158 4.932)">
				<path class="st1" d="M0.4,1.6L0,1c-0.1-0.2,0-0.4,0.2-0.5c0,0,0,0,0,0L1.2,0C1.3,0,1.6,0,1.7,0.2C1.8,0.4,1.9,0.6,2,0.8
					C2.1,1,2,1.2,1.9,1.3c0,0,0,0,0,0L0.9,1.8C0.7,1.9,0.5,1.8,0.4,1.6z"/>
			</g>
			<g transform="translate(4.299 7.059)">
				<path class="st1" d="M1.7,0.2c0.1,0.1,0.1,0.2,0.2,0.3c0.1,0.2,0,0.3-0.2,0.4c0,0,0,0,0,0L0.5,1.3c-0.1,0-0.3,0-0.4-0.2
					C0.1,1,0.1,1,0,0.9C0,0.7,0,0.5,0.2,0.5c0,0,0,0,0,0L1.3,0C1.4,0,1.6,0,1.7,0.2z"/>
			</g>
		</g>
		<g transform="translate(59.599 37.351)">
			<g transform="translate(4.067)">
				<path class="st1" d="M2,1.1l0,0.1C1.9,1.4,1.6,1.5,1.5,1.4L0.2,0.9C0,0.8-0.1,0.6,0,0.4c0,0,0,0,0,0l0.1-0.2
					C0.2,0,0.4-0.1,0.6,0l1.2,0.6C2,0.7,2.1,0.9,2,1.1z"/>
			</g>
			<g transform="translate(3.075 1.703)">
				<path class="st1" d="M2.1,1.1C2.1,1.3,2,1.4,1.9,1.5C1.8,1.6,1.7,1.7,1.5,1.6L0.2,1C0,0.9,0,0.7,0,0.5c0,0,0,0,0,0l0.2-0.3
					C0.3,0,0.5,0,0.7,0L2,0.7C2.1,0.8,2.2,1,2.1,1.1C2.1,1.1,2.1,1.1,2.1,1.1z"/>
			</g>
			<g transform="translate(2.222 3.27)">
				<path class="st1" d="M2,1.3C1.9,1.4,1.9,1.5,1.8,1.6C1.7,1.7,1.5,1.8,1.3,1.7c0,0,0,0,0,0L0.1,0.9C0,0.8,0,0.6,0,0.4l0.2-0.3
					C0.3,0,0.5,0,0.6,0c0,0,0,0,0,0l1.2,0.8C2,0.9,2.1,1.1,2,1.3C2,1.3,2,1.3,2,1.3z"/>
			</g>
			<g transform="translate(1.047 4.812)">
				<path class="st1" d="M0.1,0.7l0.4-0.6C0.6,0,0.9,0,1.1,0.1c0,0,0,0,0,0l0.7,0.7C2,0.9,2,1.1,1.9,1.3C1.8,1.5,1.6,1.7,1.5,1.9
					C1.4,2,1.1,2.1,1,2c0,0,0,0,0,0L0.1,1.3C0,1.1,0,0.9,0.1,0.7z"/>
			</g>
			<g transform="translate(0 6.76)">
				<path class="st1" d="M1.6,1.3C1.5,1.4,1.4,1.5,1.4,1.6C1.2,1.7,1,1.7,0.9,1.6c0,0,0,0,0,0L0.1,0.7C0,0.6,0,0.4,0.1,0.3
					c0-0.1,0.1-0.1,0.1-0.2C0.3,0,0.5,0,0.7,0.1c0,0,0,0,0,0l0.9,0.8C1.7,1,1.7,1.2,1.6,1.3z"/>
			</g>
		</g>
		<g transform="translate(18.94 13.092)">
			<g transform="translate(4.3)">
				<path class="st1" d="M0.2,0.1L0.2,0.1C0,0.4,0,0.6,0.1,0.8l1,0.9c0.2,0.1,0.4,0.1,0.5,0c0,0,0,0,0,0l0.1-0.1
					C1.9,1.3,1.9,1,1.7,0.9l-1-0.8C0.5,0,0.3,0,0.2,0.1z"/>
			</g>
			<g transform="translate(2.986 1.541)">
				<path class="st1" d="M0.3,0.1C0.2,0.2,0.1,0.4,0.1,0.5C0,0.6,0,0.8,0.1,0.9l1.2,0.9c0.1,0.1,0.4,0.1,0.5-0.1c0,0,0,0,0,0L2,1.4
					C2.1,1.3,2.1,1.1,1.9,1L0.8,0.1C0.6,0,0.4,0,0.3,0.1C0.3,0.1,0.3,0.1,0.3,0.1z"/>
			</g>
			<g transform="translate(1.959 3.157)">
				<path class="st1" d="M0.2,0.2C0.2,0.3,0.1,0.4,0,0.5C0,0.6,0,0.8,0.2,0.9c0,0,0,0,0,0l1.2,0.7c0.1,0.1,0.3,0,0.4-0.1L2,1.3
					c0.1-0.1,0.1-0.3-0.1-0.4c0,0,0,0,0,0L0.7,0C0.5,0,0.3,0,0.2,0.2z"/>
			</g>
			<g transform="translate(0.946 4.932)">
				<path class="st1" d="M1.7,1.6L2,1c0.1-0.2,0-0.4-0.2-0.5c0,0,0,0,0,0L0.9,0C0.7,0,0.5,0,0.4,0.2C0.3,0.4,0.2,0.6,0.1,0.8
					C-0.1,1,0,1.2,0.2,1.3c0,0,0,0,0,0l0.9,0.4C1.4,1.9,1.6,1.8,1.7,1.6z"/>
			</g>
			<g transform="translate(0 7.059)">
				<path class="st1" d="M0.2,0.2C0.1,0.3,0.1,0.4,0,0.5C0,0.6,0,0.8,0.2,0.9c0,0,0,0,0,0l1.1,0.3c0.1,0,0.3,0,0.4-0.2
					C1.8,1,1.8,1,1.8,0.9c0.1-0.2,0-0.3-0.1-0.4c0,0,0,0,0,0L0.6,0C0.4,0,0.3,0,0.2,0.2z"/>
			</g>
		</g>
		<g transform="translate(18.856 37.259)">
			<path class="st1" d="M0,1.1l0,0.1c0.1,0.2,0.3,0.3,0.5,0.2l1.2-0.5C2,0.8,2.1,0.6,2,0.4c0,0,0,0,0,0L1.9,0.2C1.8,0,1.6-0.1,1.4,0
				L0.2,0.6C0,0.7,0,0.9,0,1.1z"/>
			<g transform="translate(0.854 1.703)">
				<path class="st1" d="M0,1.1c0.1,0.1,0.1,0.2,0.2,0.3c0.1,0.2,0.3,0.2,0.4,0.1L2,1c0.2-0.1,0.2-0.3,0.1-0.4c0,0,0,0,0,0L1.9,0.2
					C1.9,0,1.7,0,1.5,0L0.2,0.7C0,0.8,0,1,0,1.1C0,1.1,0,1.1,0,1.1z"/>
			</g>
			<g transform="translate(1.841 3.27)">
				<path class="st1" d="M0,1.3c0.1,0.1,0.1,0.2,0.2,0.3c0.1,0.1,0.3,0.2,0.4,0.1c0,0,0,0,0,0l1.2-0.8C2,0.8,2.1,0.6,2,0.4L1.8,0.2
					C1.7,0,1.5,0,1.4,0c0,0,0,0,0,0L0.2,0.8C0,0.9,0,1.1,0,1.3C0,1.3,0,1.3,0,1.3z"/>
			</g>
			<g transform="translate(3.089 4.812)">
				<path class="st1" d="M1.9,0.7L1.5,0.2C1.3,0,1.1-0.1,0.9,0.1c0,0,0,0,0,0L0.1,0.8C0,0.9,0,1.1,0.1,1.3c0.1,0.2,0.3,0.4,0.4,0.6
					C0.6,2,0.8,2.1,1,1.9c0,0,0,0,0,0l0.8-0.7C2,1.1,2,0.9,1.9,0.7z"/>
			</g>
			<g transform="translate(4.465 6.76)">
				<path class="st1" d="M0.1,1.3c0.1,0.1,0.1,0.2,0.2,0.3c0.1,0.1,0.3,0.1,0.5,0c0,0,0,0,0,0l0.8-0.9c0.1-0.1,0.1-0.3,0-0.4
					c0-0.1-0.1-0.1-0.1-0.2C1.3,0,1.1,0,1,0.1c0,0,0,0,0,0L0.1,0.9C0,1,0,1.2,0.1,1.3z"/>
			</g>
		</g>
		<g transform="translate(16.844 3.992)">
			<g transform="translate(26.136 25.776)">
				<path class="st1" d="M24.6,0.6c-0.3,1.6-0.6,3.2-1,4.7c-0.1,0.8-0.7,1.3-1.5,1.3c-0.1,0-0.3,0-0.4-0.1c-1.6-0.4-3.1-0.8-4.7-1.1
					c-1.1-0.3-2.3-0.3-3.5-0.1c-2.6,0.8-3.4,3-1.8,5.2c1.3,1.9,2.7,3.6,4.1,5.4c1,1.2,0.9,2.1-0.4,3.1c-3.4,2.5-7.2,4.4-11.3,5.6
					c-1.5,0.4-2.5,0-2.8-1.5c-0.5-3.6-1-7.1-1.4-10.7c0.1-0.6,0.5-1,1.1-1.2c0.5,0,1.4,0.5,1.5,1c0.3,2,0.5,4,0.6,6
					c0.2,2.6,0.9,3.3,3.4,2.7c1.7-0.4,3.3-1.2,4.8-2.1c1.5-0.9,1.4-1.7,0.3-3.1c-1-1.3-2-2.5-2.9-3.9C6,7.6,10.1,2.6,13.9,2.7
					c1.8,0.1,3.6,0.3,5.3,0.4c1.4,0.1,2.3-0.3,2.5-1.8c0.2-1.7,1.4-1.3,2.7-1.2C24.5,0.1,24.6,0.5,24.6,0.6z"/>
			</g>
			<g transform="translate(0 0.007)">
				<path class="st1" d="M0.6,24.6c-0.4,0-0.6-0.4-0.6-0.7c0,0,0,0,0-0.1c0.3-1.4,0.5-2.7,0.8-3.9c0.1-1,1.1-1.8,2.1-1.6
					c0.1,0,0.2,0,0.3,0.1c1.7,0.4,3.5,0.8,5.2,1.2C9.6,20,11,19.8,12.1,19c1.9-1.6,2.2-3.1,0.7-5.1c-1.1-1.5-2.4-2.9-3.6-4.4
					C7.8,7.6,7.8,6.6,9.8,5.3C13.2,2.8,17,1.1,21,0.1c1-0.3,1.9,0.1,2,1.1c0.6,3.8,1.2,7.5,1.6,11.3c0,0.3-0.7,0.8-1.4,1.1
					c-0.3,0.1-0.5,0-0.7-0.1c-0.3-0.2-0.5-0.6-0.6-0.9c-0.2-1.9-0.3-3.8-0.4-5.7c-0.2-3-1-3.7-3.9-2.9C16,4.5,14.4,5.3,13,6.3
					c-0.8,0.4-1.1,1.3-0.7,2.1c0.1,0.2,0.2,0.3,0.3,0.4c0.8,1,1.6,2,2.4,3c1.7,2.1,2.3,4.4,0.9,6.9c-1.2,2.3-3.7,3.5-6.3,3.1
					c-1.3-0.1-2.7-0.3-4-0.4c-1.5-0.1-2.5,0.3-2.8,2C2.7,24.9,1.7,24.7,0.6,24.6z"/>
			</g>
			<g transform="translate(0.257 25.808)">
				<path class="st1" d="M0,0.7c0-0.3,0.1-0.6,0.4-0.6c0,0,0,0,0,0c1.4-0.2,2.2-0.2,2.4,1.4C3,2.8,4,3.4,5.4,3.2
					c1.5-0.2,3-0.3,4.5-0.4c2.6-0.3,5,1.1,6.1,3.5c1.2,2.3,0.6,4.5-0.9,6.5c-0.8,1-1.6,1.9-2.4,2.9c-0.8,0.6-0.8,1.8-0.2,2.5
					c0.1,0.1,0.2,0.2,0.3,0.3c1.8,1.8,4.3,2.7,6.8,2.4c0.7-0.2,1.2-0.8,1.5-1.5c0.4-1.8,0.5-3.6,0.8-5.5c0.1-0.7,0.2-1.4,0.5-2
					c0.3-0.4,0.8-0.6,1.3-0.6c0.4,0.1,0.7,0.5,0.8,0.9c-0.5,3.8-1,7.7-1.8,11.5c-0.4,0.7-1.2,1.1-2,1.1c-4.4-1.1-8.6-3.2-12.1-6
					C8,18,7.8,17,8.3,16.2c0.1-0.1,0.1-0.2,0.2-0.2c1.3-1.7,2.6-3.3,3.9-5c0.9-1.2,1.8-2.5,0.7-4.1c-1-1.6-3-2.4-4.8-1.8
					C6.6,5.5,4.9,6,3.2,6.4c-0.9,0.3-1.9-0.1-2.2-1c0-0.1-0.1-0.2-0.1-0.4C0.5,3.7,0.3,2.2,0,0.7z"/>
			</g>
			<g transform="translate(26.012)">
				<path class="st1" d="M1.5,1.7c0-1,0.9-1.8,1.9-1.8C3.6,0,3.9,0,4.1,0.1c4,1.1,7.8,2.9,11.2,5.3c1.7,1.2,1.8,1.9,0.6,3.6
					c-1,1.4-2.2,2.6-3.3,4c-1,1.3-2.1,2.7-1,4.5c1.2,1.9,2.8,2.4,5.2,1.8c1.5-0.4,2.9-0.8,4.4-1.1c1.8-0.3,2.6,0.3,3.1,2.1
					c0.2,0.9,0.3,1.8,0.4,2.7c0.1,0.8,0.1,1.5-1.1,1.5c-0.9,0-1.5-0.1-1.7-1.2c-0.2-1.7-0.8-2.1-2.6-2c-1.6,0.1-3.2,0.4-4.8,0.4
					c-3,0-5.1-1.4-6-4.3c-0.4-1.2-0.3-2.4,0.1-3.5c1-1.7,2.1-3.4,3.4-4.9c0.8-0.7,0.8-1.8,0.2-2.6c-0.1-0.1-0.2-0.2-0.4-0.3
					C10.3,4.8,8.3,4,6.3,3.8C4.4,3.7,3.6,4.3,3.3,6.1C3,7.6,2.9,9.2,2.8,10.8c0,0.4-0.1,0.8-0.2,1.1c-0.3,0.8-0.3,2-1.6,1.9
					c-1.3-0.1-1-1.2-1-2C0,11.3,1,4.5,1.5,1.7z"/>
			</g>
		</g>
	</g>
</g>
</svg>
