<svg xmlns="http://www.w3.org/2000/svg" width="21.973" height="25" viewBox="0 0 21.973 25"><g transform="translate(-31)"><g transform="translate(38.324 4.443)"><path d="M195.648,102.768a1.469,1.469,0,0,0-1.465-1.465,1.465,1.465,0,0,0,0-2.93h-6.006a12.772,12.772,0,0,0,.879-5.176,2.2,2.2,0,0,0-2.2-2.2h-.439a.757.757,0,0,0-.7.557c-.725,2.821-1.858,6.059-4.717,6.715v10.6l2.534.841a7.3,7.3,0,0,0,2.314.381h6.87a1.465,1.465,0,1,0,0-2.93h1.465a1.465,1.465,0,0,0,0-2.93A1.469,1.469,0,0,0,195.648,102.768Z" transform="translate(-181 -91)" fill="#646464"/></g><g transform="translate(31 10.352)"><path d="M34.662,212h-2.93a.732.732,0,0,0-.732.732v13.184a.732.732,0,0,0,.732.732h2.93a2.2,2.2,0,0,0,2.2-2.2V214.2A2.2,2.2,0,0,0,34.662,212Zm0,11.719a.732.732,0,1,1,.732-.732A.732.732,0,0,1,34.662,223.719Z" transform="translate(-31 -212)" fill="#646464"/></g><g transform="translate(38.79 1.979)"><path d="M192.823,41.787l-1.036-1.036a.732.732,0,1,0-1.036,1.036l1.036,1.036a.732.732,0,0,0,1.036-1.036Z" transform="translate(-190.537 -40.537)" fill="#646464"/></g><g transform="translate(47.077 1.979)"><path d="M362.539,40.751a.732.732,0,0,0-1.036,0l-1.036,1.036a.732.732,0,0,0,1.036,1.036l1.036-1.036A.732.732,0,0,0,362.539,40.751Z" transform="translate(-360.253 -40.537)" fill="#646464"/></g><g transform="translate(43.451)"><path d="M286.732,0A.725.725,0,0,0,286,.732V2.246a.732.732,0,0,0,1.465,0V.732A.725.725,0,0,0,286.732,0Z" transform="translate(-286)" fill="#646464"/></g></g></svg>