<?xml version="1.0" encoding="utf-8"?>
<!-- Generator: Adobe Illustrator 24.0.2, SVG Export Plug-In . SVG Version: 6.00 Build 0)  -->
<svg version="1.1" id="Capa_1" xmlns="http://www.w3.org/2000/svg" xmlns:xlink="http://www.w3.org/1999/xlink" x="0px" y="0px"
	 viewBox="0 0 54 50" style="enable-background:new 0 0 54 50;" xml:space="preserve">
<style type="text/css">
	.st0{fill:#001F3F;}
	.st1{enable-background:new    ;}
</style>
<g transform="translate(114.106 -5) rotate(90)">
	<path class="st0" d="M27,73.1c-5.6,0-10.6,3.1-13.1,8.1l2.3,1.1c3-6,10.2-8.4,16.2-5.5c6,3,8.4,10.2,5.5,16.2s-10.2,8.4-16.2,5.5
		c-2.4-1.2-4.3-3.1-5.5-5.5l-2.3,1.1c3.6,7.2,12.4,10.2,19.6,6.6s10.2-12.4,6.6-19.6C37.7,76.3,32.6,73.1,27,73.1z"/>
	<path class="st0" d="M32,89v-2.5H9.9l2.9-2.9L11,81.8l-6,6l6,6l1.8-1.8L9.9,89L32,89z"/>
</g>
<g class="st1">
	<path class="st0" d="M3.1,41.4c1.2,0,2.2,0.6,2.6,1.7H4.8c-0.3-0.7-0.9-1-1.7-1c-1.2,0-2,0.8-2,2.2c0,1.4,0.9,2.2,2,2.2
		c0.8,0,1.4-0.4,1.7-1h0.9C5.3,46.4,4.3,47,3.1,47c-1.6,0-2.8-1.2-2.8-2.8C0.3,42.5,1.6,41.4,3.1,41.4z"/>
	<path class="st0" d="M8.7,47.1c-1.2,0-2.2-0.9-2.2-2.3c0-1.4,0.9-2.3,2.2-2.3c1.3,0,2.1,0.9,2.1,2.1c0,0.2,0,0.3,0,0.4H7.3
		c0.1,0.9,0.7,1.4,1.4,1.4c0.7,0,1.1-0.3,1.2-0.8h0.8C10.5,46.4,9.8,47.1,8.7,47.1z M7.3,44.5H10c0-0.9-0.6-1.3-1.4-1.3
		C7.9,43.2,7.4,43.6,7.3,44.5z"/>
	<path class="st0" d="M12.5,47h-0.7v-4.4h0.7v0.7c0.2-0.5,0.7-0.8,1.4-0.8v0.8h-0.2c-0.7,0-1.2,0.3-1.2,1.3V47z"/>
	<path class="st0" d="M15.5,47h-0.7v-4.4h0.7v0.7c0.2-0.5,0.7-0.8,1.4-0.8v0.8h-0.2c-0.7,0-1.2,0.3-1.2,1.3V47z"/>
	<path class="st0" d="M19.5,42.5c0.8,0,1.4,0.4,1.6,0.9v-0.8h0.7V47h-0.7v-0.8c-0.3,0.5-0.8,0.9-1.6,0.9c-1.2,0-2.1-0.9-2.1-2.3
		C17.4,43.4,18.4,42.5,19.5,42.5z M19.7,43.2c-0.8,0-1.5,0.6-1.5,1.6s0.7,1.6,1.5,1.6c0.8,0,1.5-0.6,1.5-1.6
		C21.2,43.8,20.5,43.2,19.7,43.2z"/>
	<path class="st0" d="M23.9,47h-0.7v-4.4h0.7v0.7c0.2-0.5,0.7-0.8,1.4-0.8v0.8h-0.2c-0.7,0-1.2,0.3-1.2,1.3V47z"/>
	<path class="st0" d="M29.8,47.1c-1,0-1.7-0.6-1.8-1.4h0.8c0,0.4,0.4,0.7,1,0.7c0.6,0,0.9-0.3,0.9-0.6c0-1-2.6-0.4-2.6-2
		c0-0.7,0.6-1.2,1.6-1.2c1,0,1.6,0.5,1.7,1.4h-0.7c0-0.4-0.4-0.8-1-0.8c-0.5,0-0.9,0.3-0.9,0.6c0,1,2.5,0.5,2.6,2
		C31.4,46.5,30.8,47.1,29.8,47.1z"/>
	<path class="st0" d="M34.3,47.1c-1.2,0-2.2-0.9-2.2-2.3c0-1.4,0.9-2.3,2.2-2.3c1.3,0,2.1,0.9,2.1,2.1c0,0.2,0,0.3,0,0.4h-3.5
		c0.1,0.9,0.7,1.4,1.4,1.4c0.7,0,1.1-0.3,1.2-0.8h0.8C36.1,46.4,35.4,47.1,34.3,47.1z M32.9,44.5h2.8c0-0.9-0.6-1.3-1.4-1.3
		C33.6,43.2,33,43.6,32.9,44.5z"/>
	<path class="st0" d="M38.9,47.1c-1,0-1.7-0.6-1.8-1.4h0.8c0,0.4,0.4,0.7,1,0.7c0.6,0,0.9-0.3,0.9-0.6c0-1-2.6-0.4-2.6-2
		c0-0.7,0.6-1.2,1.6-1.2c1,0,1.6,0.5,1.7,1.4h-0.7c0-0.4-0.4-0.8-1-0.8c-0.5,0-0.9,0.3-0.9,0.6c0,1,2.5,0.5,2.6,2
		C40.5,46.5,39.9,47.1,38.9,47.1z"/>
	<path class="st0" d="M41.4,41.4c0-0.3,0.2-0.5,0.5-0.5c0.3,0,0.5,0.2,0.5,0.5s-0.2,0.5-0.5,0.5C41.7,41.9,41.4,41.7,41.4,41.4z
		 M41.6,42.6h0.7V47h-0.7V42.6z"/>
	<path class="st0" d="M45.4,47.1c-1.2,0-2.2-0.9-2.2-2.3c0-1.4,1-2.3,2.2-2.3c1.2,0,2.2,0.9,2.2,2.3C47.7,46.2,46.7,47.1,45.4,47.1z
		 M45.4,46.4c0.8,0,1.5-0.5,1.5-1.6c0-1.1-0.7-1.6-1.5-1.6c-0.8,0-1.5,0.5-1.5,1.6C44,45.9,44.7,46.4,45.4,46.4z M46.3,40.7v0.6
		l-1.7,0.9v-0.5L46.3,40.7z"/>
	<path class="st0" d="M51.9,44.5c0-0.9-0.5-1.4-1.2-1.4c-0.7,0-1.3,0.5-1.3,1.4V47h-0.7v-4.4h0.7v0.6c0.3-0.5,0.8-0.7,1.4-0.7
		c1,0,1.8,0.6,1.8,1.9V47h-0.7V44.5z"/>
</g>
</svg>
