<svg xmlns="http://www.w3.org/2000/svg" width="33.768" height="38.273" viewBox="0 0 33.768 38.273"><g transform="translate(-30.136)"><g transform="translate(44.042 0.306)"><path d="M234.919,19.684,219.992,4.755a2.243,2.243,0,1,0-3.173,3.172l14.929,14.928a2.242,2.242,0,1,0,3.171-3.171Z" transform="translate(-216.163 -4.1)" fill="#fdfffc"/></g><g transform="translate(38.161 6.197)"><path d="M142.923,82.9l-.112.563a24.1,24.1,0,0,1-5.316,10.768l8.122,8.122a24.024,24.024,0,0,1,10.716-5.368l.564-.112Z" transform="translate(-137.494 -82.905)" fill="#fdfffc"/></g><g transform="translate(30.136 19.21)"><path d="M36.672,256.989l-5.551,5.549a3.363,3.363,0,0,0,0,4.758l3.171,3.171a3.363,3.363,0,0,0,4.758,0l5.55-5.55Zm.793,8.722a1.121,1.121,0,1,1-1.586-1.586l1.586-1.586a1.121,1.121,0,0,1,1.586,1.586Z" transform="translate(-30.136 -256.989)" fill="#fdfffc"/></g><g transform="translate(42.222 25.87)"><path d="M198.874,353.491l1.525-1.525a3.361,3.361,0,0,0,0-4.757l-1.133-1.134a21.236,21.236,0,0,0-1.806,1.365l1.353,1.355a1.119,1.119,0,0,1,0,1.584l-1.551,1.551-2.279-2.208-3.171,3.171,5.087,4.93a2.243,2.243,0,0,0,3.17-3.173Z" transform="translate(-191.813 -346.075)" fill="#fdfffc"/></g><g transform="translate(52.691)"><path d="M332.985,0a1.121,1.121,0,0,0-1.121,1.121V3.364a1.121,1.121,0,1,0,2.243,0V1.121A1.121,1.121,0,0,0,332.985,0Z" transform="translate(-331.864)" fill="#fdfffc"/></g><g transform="translate(59.418 8.97)"><path d="M425.228,120h-2.243a1.121,1.121,0,1,0,0,2.243h2.243a1.121,1.121,0,1,0,0-2.243Z" transform="translate(-421.864 -120)" fill="#fdfffc"/></g><g transform="translate(57.176 2.243)"><path d="M396.02,30.328a1.121,1.121,0,0,0-1.586,0l-2.243,2.243a1.121,1.121,0,0,0,1.586,1.586l2.243-2.243A1.121,1.121,0,0,0,396.02,30.328Z" transform="translate(-391.864 -30)" fill="#fdfffc"/></g></g></svg>