<svg xmlns="http://www.w3.org/2000/svg" width="21" height="36" viewBox="0 0 21 36"><g transform="translate(-264 -599)" opacity="0.3"><g transform="translate(264 599)"><path d="M93.053,12.043a5.826,5.826,0,0,0,4.258-1.764,5.826,5.826,0,0,0,1.764-4.257,5.827,5.827,0,0,0-1.764-4.257,6.02,6.02,0,0,0-8.515,0,5.826,5.826,0,0,0-1.764,4.257A5.826,5.826,0,0,0,88.8,10.279,5.828,5.828,0,0,0,93.053,12.043Zm0,0" transform="translate(-82.782)" fill="#646464"/><path d="M20.807,254.464a14.874,14.874,0,0,0-.2-1.58,12.446,12.446,0,0,0-.389-1.588,7.844,7.844,0,0,0-.653-1.481,5.589,5.589,0,0,0-.985-1.283,4.341,4.341,0,0,0-1.414-.889,4.888,4.888,0,0,0-1.805-.327,1.833,1.833,0,0,0-.979.415c-.293.191-.636.413-1.019.657a5.842,5.842,0,0,1-1.319.581,5.122,5.122,0,0,1-3.227,0,5.828,5.828,0,0,1-1.318-.581c-.379-.242-.723-.464-1.02-.658a1.83,1.83,0,0,0-.978-.415,4.882,4.882,0,0,0-1.805.327,4.338,4.338,0,0,0-1.414.889,5.591,5.591,0,0,0-.984,1.283A7.86,7.86,0,0,0,.641,251.3a12.476,12.476,0,0,0-.388,1.588,14.821,14.821,0,0,0-.2,1.58c-.033.478-.05.975-.05,1.476a4.151,4.151,0,0,0,1.233,3.141A4.438,4.438,0,0,0,4.41,260.24H16.447a4.437,4.437,0,0,0,3.177-1.159,4.149,4.149,0,0,0,1.233-3.141c0-.5-.017-1-.051-1.477Zm0,0" transform="translate(0 -235.24)" fill="#646464"/></g><text transform="translate(265 632)" fill="#646464" font-size="8" font-family="Poppins-Regular, Poppins"><tspan x="0" y="0">Perfil</tspan></text></g></svg>