<svg xmlns="http://www.w3.org/2000/svg" width="32" height="32" viewBox="0 0 32 32"><path d="M182.563,5.836,182.2,7.942a.937.937,0,0,0,1.36.988l1.891-.994,1.891.994a.937.937,0,0,0,.436.108h0a.938.938,0,0,0,.913-1.147l-.353-2.055,1.53-1.491a.938.938,0,0,0-.52-1.6l-2.114-.307L186.293.523a.938.938,0,0,0-1.681,0l-.945,1.916-2.114.307a.938.938,0,0,0-.52,1.6Z" transform="translate(-169.453 0)" fill="#0b8457"/><path d="M376.189,369.994a7.323,7.323,0,0,1-6.436,1.506,8.294,8.294,0,0,1,.527,2.917v1a5.3,5.3,0,0,1-1.272,3.448H374.5a3.452,3.452,0,0,0,3.448-3.448v-1A6.437,6.437,0,0,0,376.189,369.994Z" transform="translate(-345.945 -346.869)" fill="#0b8457"/><path d="M174.155,203.712a5.456,5.456,0,1,0-5.456-5.456A5.462,5.462,0,0,0,174.155,203.712Z" transform="translate(-158.155 -180.75)" fill="#0b8457"/><path d="M355.926,203.712a5.456,5.456,0,1,0-3.514-9.627,7.315,7.315,0,0,1,0,8.341A5.432,5.432,0,0,0,355.926,203.712Z" transform="translate(-330.386 -180.75)" fill="#0b8457"/><path d="M21.522,203.713a5.432,5.432,0,0,0,3.514-1.286,7.315,7.315,0,0,1,0-8.341,5.455,5.455,0,1,0-3.514,9.627Z" transform="translate(-15.062 -180.751)" fill="#0b8457"/><path d="M159.093,371.707a7.3,7.3,0,0,1-4.7-1.713,6.437,6.437,0,0,0-1.756,4.423v1a3.452,3.452,0,0,0,3.448,3.448h6.025a3.452,3.452,0,0,0,3.448-3.448v-1a6.437,6.437,0,0,0-1.756-4.423A7.3,7.3,0,0,1,159.093,371.707Z" transform="translate(-143.093 -346.869)" fill="#0b8457"/><path d="M7.665,374.418a8.294,8.294,0,0,1,.527-2.917,7.323,7.323,0,0,1-6.436-1.506A6.437,6.437,0,0,0,0,374.418v1a3.452,3.452,0,0,0,3.448,3.448H8.937a5.3,5.3,0,0,1-1.272-3.448Z" transform="translate(0 -346.87)" fill="#0b8457"/></svg>